<svg width="72" height="73" viewBox="0 0 72 73" fill="none" xmlns="http://www.w3.org/2000/svg">
<path d="M2.34473 40.6377C5.45681 37.5239 10.5072 37.5247 13.623 40.6396L16.2324 43.2402C16.4024 43.412 16.6422 43.5214 16.9082 43.5215C17.172 43.5215 17.4121 43.4139 17.5801 43.2402L20.1865 40.6406C23.3007 37.5256 28.3497 37.5255 31.4639 40.6396C34.5761 43.7538 34.5762 48.8018 31.4639 51.918L28.8662 54.5225C28.6873 54.694 28.5753 54.938 28.5752 55.207C28.5752 55.4555 28.6663 55.6819 28.8262 55.8525L31.4639 58.4883C34.5762 61.6021 34.5762 66.6521 31.4639 69.7656C28.3497 72.8805 23.3006 72.8788 20.1865 69.7656L17.5801 67.166C17.4065 66.9909 17.1627 66.8819 16.8984 66.8818C16.6372 66.8818 16.3965 66.9907 16.2246 67.1621L13.6152 69.7656C10.502 72.8788 5.45317 72.8787 2.33691 69.7656C-0.778732 66.6524 -0.778733 61.6012 2.33691 58.4873L4.94238 55.8809C5.12021 55.7057 5.23241 55.4642 5.23242 55.1963C5.23242 54.9479 5.13803 54.7224 4.98242 54.5518L2.34668 51.916C-0.768368 48.8019 -0.768525 43.7518 2.34473 40.6377ZM58.3682 40.6211C61.484 37.5062 66.5344 37.5054 69.6465 40.6191C72.7597 43.7333 72.7606 48.7833 69.6455 51.8975L67.0088 54.5322C66.8531 54.7029 66.7588 54.9292 66.7588 55.1777C66.7588 55.4456 66.8711 55.6872 67.0488 55.8623L69.6543 58.4688C72.7699 61.5826 72.7698 66.6328 69.6543 69.7461C66.538 72.8593 61.4902 72.8593 58.377 69.7461L55.7676 67.1436C55.5958 66.9721 55.355 66.8634 55.0938 66.8633C54.8294 66.8633 54.5848 66.9723 54.4111 67.1475L51.8047 69.7471C48.6906 72.8601 43.6414 72.8619 40.5273 69.7471C37.4151 66.6336 37.4152 61.5836 40.5273 58.4697L43.165 55.834C43.3249 55.6633 43.416 55.437 43.416 55.1885C43.416 54.9194 43.304 54.6754 43.125 54.5039L40.5273 51.8994C37.4151 48.7832 37.4152 43.7353 40.5273 40.6211C43.6414 37.5071 48.6905 37.5064 51.8047 40.6211L54.4111 43.2217C54.5791 43.3953 54.8192 43.5029 55.083 43.5029C55.3491 43.5029 55.5888 43.3935 55.7588 43.2217L58.3682 40.6211ZM16.9053 0C25.1055 0 31.9413 5.84326 33.4814 13.5938C33.5566 13.9736 33.6163 14.3649 33.666 14.7588C33.7543 15.4609 33.8057 16.1733 33.8057 16.8984V25.8301C33.8056 30.2345 30.236 33.8045 25.834 33.8047C21.4318 33.8047 17.8584 30.2346 17.8584 25.8301V16.8926C17.8584 16.3609 17.43 15.9346 16.9033 15.9346C16.3768 15.9347 15.9506 16.3591 15.9473 16.8848V25.8301C15.9473 30.2347 12.3776 33.8047 7.97363 33.8047C3.56963 33.8047 0 30.2347 0 25.8301L0.00292969 16.8984L0.0078125 16.4619C0.239391 7.33245 7.71628 9.08817e-06 16.9053 0ZM64.0244 0C68.4284 0 72 3.57329 72 7.9707V16.8984C72 17.63 71.948 18.3452 71.8594 19.0469C71.8088 19.4386 71.7486 19.8255 71.6729 20.2119C70.1336 27.9611 63.2985 33.8045 55.0977 33.8047C45.7649 33.8047 38.1985 26.2365 38.1982 16.8984L38.1924 7.9707C38.1921 3.57332 41.763 5.57228e-05 46.166 0C50.5694 0 54.1387 3.57329 54.1387 7.9707V9.91992C54.1387 9.91992 54.1396 16.4545 54.1396 16.9053C54.1432 17.4337 54.5699 17.8584 55.0957 17.8584C55.6246 17.8582 56.0507 17.4282 56.0508 16.8984V7.9707C56.0512 3.57314 59.6206 0.000127153 64.0244 0Z" fill="#1E1E1E"/>
</svg>
