<svg preserveAspectRatio="none" width="100%" height="100%" overflow="visible" style="display: block;" viewBox="0 0 221.632 184.206" fill="none" xmlns="http://www.w3.org/2000/svg">
<g id="Group 2135">
<g id="Ellipse 4495" filter="url(#filter0_f_1704_132)">
<path d="M144.818 92.1094C144.816 100.378 138.264 107.392 126.824 107.392C102.767 107.386 76.8116 100.356 76.8137 92.0874C76.8158 83.8193 102.774 76.8076 126.832 76.8137C137.192 76.8137 144.82 83.8413 144.818 92.1094Z" fill="url(#paint0_linear_1704_132)" fill-opacity="0.8"/>
</g>
<ellipse id="Ellipse 4496" cx="131.402" cy="92.1372" rx="14.5324" ry="14.5324" transform="rotate(0.0144575 131.402 92.1372)" fill="var(--fill-0, #F5D400)"/>
<path id="Ellipse 4497" d="M131.401 76.2278C140.162 76.2278 147.264 83.3295 147.265 92.0901C147.265 100.851 140.162 107.953 131.401 107.953C122.641 107.953 115.539 100.851 115.539 92.0901C115.539 83.3297 122.641 76.228 131.401 76.2278Z" stroke="url(#paint1_linear_1704_132)"/>
</g>
<defs>
<filter id="filter0_f_1704_132" x="-3.23728e-06" y="-7.30157e-07" width="221.632" height="184.206" filterUnits="userSpaceOnUse" color-interpolation-filters="sRGB">
<feFlood flood-opacity="0" result="BackgroundImageFix"/>
<feBlend mode="normal" in="SourceGraphic" in2="BackgroundImageFix" result="shape"/>
<feGaussianBlur stdDeviation="38.4069" result="effect1_foregroundBlur_1704_132"/>
</filter>
<linearGradient id="paint0_linear_1704_132" x1="145.358" y1="94.8346" x2="66.0955" y2="94.8652" gradientUnits="userSpaceOnUse">
<stop offset="0.23598" stop-color="#F5D400"/>
<stop offset="1" stop-color="#675900"/>
</linearGradient>
<linearGradient id="paint1_linear_1704_132" x1="116.023" y1="94.2352" x2="146.71" y2="94.2352" gradientUnits="userSpaceOnUse">
<stop offset="0.481636" stop-color="#F5D400" stop-opacity="0"/>
<stop offset="0.865083" stop-color="#F5D400"/>
<stop offset="1" stop-color="#F5D400"/>
</linearGradient>
</defs>
</svg>
