<svg preserveAspectRatio="none" width="100%" height="100%" overflow="visible" style="display: block;" viewBox="0 0 158.864 120.468" fill="none" xmlns="http://www.w3.org/2000/svg">
<g id="Group 2098">
<g id="Ellipse 4501" filter="url(#filter0_f_1704_231)">
<path d="M114.317 60.2404C114.315 68.7231 107.593 75.92 95.8556 75.92C71.1741 75.9137 44.5455 68.7005 44.5477 60.2178C44.5498 51.735 71.182 44.5414 95.8635 44.5477C106.493 44.5477 114.319 51.7577 114.317 60.2404Z" fill="url(#paint0_linear_1704_231)" fill-opacity="0.8"/>
</g>
<ellipse id="Ellipse 4502" cx="100.553" cy="60.269" rx="14.9095" ry="14.9096" transform="rotate(0.0144596 100.553 60.269)" fill="var(--fill-0, black)"/>
<path id="Ellipse 4503" d="M100.553 43.9616C109.534 43.9618 116.814 51.2425 116.814 60.2234C116.814 69.2041 109.534 76.4849 100.553 76.4851C91.5721 76.4851 84.2914 69.2042 84.2913 60.2234C84.2913 51.2424 91.572 43.9616 100.553 43.9616Z" stroke="url(#paint1_linear_1704_231)"/>
</g>
<defs>
<filter id="filter0_f_1704_231" x="-1.35857e-06" y="7.45058e-09" width="158.864" height="120.468" filterUnits="userSpaceOnUse" color-interpolation-filters="sRGB">
<feFlood flood-opacity="0" result="BackgroundImageFix"/>
<feBlend mode="normal" in="SourceGraphic" in2="BackgroundImageFix" result="shape"/>
<feGaussianBlur stdDeviation="22.2738" result="effect1_foregroundBlur_1704_231"/>
</filter>
<linearGradient id="paint0_linear_1704_231" x1="114.87" y1="63.0362" x2="33.5513" y2="63.0677" gradientUnits="userSpaceOnUse">
<stop offset="0.23598" stop-color="#0AE98A"/>
<stop offset="1" stop-color="#044429"/>
</linearGradient>
<linearGradient id="paint1_linear_1704_231" x1="84.7747" y1="62.4234" x2="116.258" y2="62.4234" gradientUnits="userSpaceOnUse">
<stop offset="0.481636" stop-color="#0AE98A" stop-opacity="0"/>
<stop offset="0.865083" stop-color="#0AE98A"/>
<stop offset="1" stop-color="#0AE98A"/>
</linearGradient>
</defs>
</svg>
