<svg preserveAspectRatio="none" width="100%" height="100%" overflow="visible" style="display: block;" viewBox="0 0 117.519 97.672" fill="none" xmlns="http://www.w3.org/2000/svg">
<g id="Group 2123">
<g id="Ellipse 4492" filter="url(#filter0_f_1704_85)">
<path d="M76.7902 48.8394C76.789 53.2234 73.3149 56.9428 67.2483 56.9428C54.4915 56.9395 40.7282 53.2117 40.7293 48.8277C40.7304 44.4438 54.4956 40.7261 67.2524 40.7293C72.7466 40.7293 76.7913 44.4555 76.7902 48.8394Z" fill="url(#paint0_linear_1704_85)" fill-opacity="0.8"/>
</g>
<ellipse id="Ellipse 4493" cx="69.6774" cy="48.8547" rx="7.70615" ry="7.70541" transform="rotate(0.0144549 69.6774 48.8547)" fill="var(--fill-0, #B8F500)"/>
<path id="Ellipse 4494" d="M69.6738 40.2777C74.3978 40.2777 78.2274 44.1068 78.2275 48.8304C78.2275 53.5541 74.3978 57.3831 69.6738 57.3832C64.9497 57.3832 61.1201 53.5541 61.1201 48.8304C61.1201 44.1068 64.9498 40.2777 69.6738 40.2777Z" stroke="url(#paint1_linear_1704_85)" stroke-width="0.814586"/>
</g>
<defs>
<filter id="filter0_f_1704_85" x="-7.35512e-07" y="-1.85519e-06" width="117.519" height="97.672" filterUnits="userSpaceOnUse" color-interpolation-filters="sRGB">
<feFlood flood-opacity="0" result="BackgroundImageFix"/>
<feBlend mode="normal" in="SourceGraphic" in2="BackgroundImageFix" result="shape"/>
<feGaussianBlur stdDeviation="20.3646" result="effect1_foregroundBlur_1704_85"/>
</filter>
<linearGradient id="paint0_linear_1704_85" x1="77.0763" y1="50.2843" x2="35.0457" y2="50.3006" gradientUnits="userSpaceOnUse">
<stop offset="0.23598" stop-color="#B8F500"/>
<stop offset="1" stop-color="#648500"/>
</linearGradient>
<linearGradient id="paint1_linear_1704_85" x1="61.5187" y1="49.9677" x2="77.7914" y2="49.9677" gradientUnits="userSpaceOnUse">
<stop offset="0.481636" stop-color="#B8F500" stop-opacity="0"/>
<stop offset="0.865083" stop-color="#B8F500"/>
<stop offset="1" stop-color="#B8F500"/>
</linearGradient>
</defs>
</svg>
