<svg preserveAspectRatio="none" width="100%" height="100%" overflow="visible" style="display: block;" viewBox="0 0 160.056 120.988" fill="none" xmlns="http://www.w3.org/2000/svg">
<g id="Group 2137">
<g id="Ellipse 4498" filter="url(#filter0_f_1704_257)">
<path d="M115.508 60.5009C115.506 69.1244 108.67 76.4407 96.7318 76.4407C71.6288 76.4344 44.5455 69.1014 44.5476 60.4779C44.5498 51.8543 71.6369 44.5413 96.7398 44.5477C107.551 44.5477 115.51 51.8773 115.508 60.5009Z" fill="url(#paint0_linear_1704_257)" fill-opacity="0.8"/>
</g>
<ellipse id="Ellipse 4499" cx="101.509" cy="60.5312" rx="15.1641" ry="15.1571" transform="rotate(0.0144509 101.509 60.5312)" fill="var(--fill-0, black)"/>
<path id="Ellipse 4500" d="M101.507 43.9608C110.636 43.9608 118.038 51.3586 118.038 60.4842C118.038 69.6098 110.636 77.0067 101.507 77.0067C92.3777 77.0066 84.9767 69.6097 84.9765 60.4843C84.9765 51.3587 92.3776 43.961 101.507 43.9608Z" stroke="url(#paint1_linear_1704_257)"/>
</g>
<defs>
<filter id="filter0_f_1704_257" x="-1.09244e-06" y="-1.08778e-06" width="160.056" height="120.988" filterUnits="userSpaceOnUse" color-interpolation-filters="sRGB">
<feFlood flood-opacity="0" result="BackgroundImageFix"/>
<feBlend mode="normal" in="SourceGraphic" in2="BackgroundImageFix" result="shape"/>
<feGaussianBlur stdDeviation="22.2738" result="effect1_foregroundBlur_1704_257"/>
</filter>
<linearGradient id="paint0_linear_1704_257" x1="116.071" y1="63.3431" x2="33.3635" y2="63.3752" gradientUnits="userSpaceOnUse">
<stop offset="0.23598" stop-color="#F59700"/>
<stop offset="1" stop-color="#794B00"/>
</linearGradient>
<linearGradient id="paint1_linear_1704_257" x1="85.4597" y1="62.7208" x2="117.481" y2="62.7208" gradientUnits="userSpaceOnUse">
<stop offset="0.481636" stop-color="#F59700" stop-opacity="0"/>
<stop offset="0.865083" stop-color="#F59700"/>
<stop offset="1" stop-color="#F59700"/>
</linearGradient>
</defs>
</svg>
