<svg preserveAspectRatio="none" width="100%" height="100%" overflow="visible" style="display: block;" viewBox="0 0 154.495 118.502" fill="none" xmlns="http://www.w3.org/2000/svg">
<g id="Group 2135">
<g id="Ellipse 4495" filter="url(#filter0_f_1704_54)">
<path d="M109.948 59.2574C109.946 67.2089 103.645 73.9551 92.6426 73.9551C69.5066 73.9492 44.5454 67.1877 44.5474 59.2362C44.5494 51.2847 69.514 44.5416 92.65 44.5474C102.614 44.5474 109.95 51.3059 109.948 59.2574Z" fill="url(#paint0_linear_1704_54)" fill-opacity="0.8"/>
</g>
<ellipse id="Ellipse 4496" cx="97.043" cy="59.2792" rx="13.9759" ry="13.9759" transform="rotate(0.0144625 97.043 59.2792)" fill="var(--fill-0, black)"/>
<path id="Ellipse 4497" d="M97.041 43.9625C105.477 43.9625 112.315 50.8011 112.315 59.2369C112.315 67.6728 105.477 74.5113 97.041 74.5113C88.6052 74.5113 81.7666 67.6727 81.7666 59.2369C81.7666 50.8011 88.6052 43.9625 97.041 43.9625Z" stroke="url(#paint1_linear_1704_54)"/>
</g>
<defs>
<filter id="filter0_f_1704_54" x="-1.43936e-06" y="6.70552e-08" width="154.495" height="118.502" filterUnits="userSpaceOnUse" color-interpolation-filters="sRGB">
<feFlood flood-opacity="0" result="BackgroundImageFix"/>
<feBlend mode="normal" in="SourceGraphic" in2="BackgroundImageFix" result="shape"/>
<feGaussianBlur stdDeviation="22.2737" result="effect1_foregroundBlur_1704_54"/>
</filter>
<linearGradient id="paint0_linear_1704_54" x1="110.467" y1="61.8782" x2="34.2397" y2="61.9077" gradientUnits="userSpaceOnUse">
<stop offset="0.23598" stop-color="#F5D400"/>
<stop offset="1" stop-color="#675900"/>
</linearGradient>
<linearGradient id="paint1_linear_1704_54" x1="82.2512" y1="61.2995" x2="111.763" y2="61.2995" gradientUnits="userSpaceOnUse">
<stop offset="0.481636" stop-color="#F5D400" stop-opacity="0"/>
<stop offset="0.865083" stop-color="#F5D400"/>
<stop offset="1" stop-color="#F5D400"/>
</linearGradient>
</defs>
</svg>
