<svg preserveAspectRatio="none" width="100%" height="100%" overflow="visible" style="display: block;" viewBox="0 0 117.517 97.6725" fill="none" xmlns="http://www.w3.org/2000/svg">
<g id="Group 2135">
<g id="Ellipse 4495" filter="url(#filter0_f_1704_117)">
<path d="M76.7875 48.8396C76.7864 53.2237 73.3125 56.9432 67.2464 56.9432C54.4904 56.9399 40.7282 53.212 40.7293 48.8279C40.7304 44.4439 54.4945 40.7261 67.2505 40.7293C72.7442 40.7293 76.7886 44.4556 76.7875 48.8396Z" fill="url(#paint0_linear_1704_117)" fill-opacity="0.8"/>
</g>
<ellipse id="Ellipse 4496" cx="69.6734" cy="48.8553" rx="7.70558" ry="7.7056" transform="rotate(0.0144571 69.6734 48.8553)" fill="var(--fill-0, #F5D400)"/>
<path id="Ellipse 4497" d="M69.6729 40.2787C74.3965 40.2787 78.2264 44.1078 78.2266 48.8314C78.2266 53.5552 74.3967 57.3851 69.6729 57.3851C64.9493 57.3849 61.1201 53.5551 61.1201 48.8314C61.1203 44.1079 64.9494 40.2789 69.6729 40.2787Z" stroke="url(#paint1_linear_1704_117)" stroke-width="0.814586"/>
</g>
<defs>
<filter id="filter0_f_1704_117" x="-9.91975e-07" y="2.23517e-07" width="117.517" height="97.6725" filterUnits="userSpaceOnUse" color-interpolation-filters="sRGB">
<feFlood flood-opacity="0" result="BackgroundImageFix"/>
<feBlend mode="normal" in="SourceGraphic" in2="BackgroundImageFix" result="shape"/>
<feGaussianBlur stdDeviation="20.3646" result="effect1_foregroundBlur_1704_117"/>
</filter>
<linearGradient id="paint0_linear_1704_117" x1="77.0736" y1="50.2846" x2="35.0461" y2="50.3008" gradientUnits="userSpaceOnUse">
<stop offset="0.23598" stop-color="#F5D400"/>
<stop offset="1" stop-color="#675900"/>
</linearGradient>
<linearGradient id="paint1_linear_1704_117" x1="61.5188" y1="49.9689" x2="77.7903" y2="49.9689" gradientUnits="userSpaceOnUse">
<stop offset="0.481636" stop-color="#F5D400" stop-opacity="0"/>
<stop offset="0.865083" stop-color="#F5D400"/>
<stop offset="1" stop-color="#F5D400"/>
</linearGradient>
</defs>
</svg>
