<svg preserveAspectRatio="none" width="100%" height="100%" overflow="visible" style="display: block;" viewBox="0 0 128.162 106.518" fill="none" xmlns="http://www.w3.org/2000/svg">
<g id="Group 2124">
<g id="Ellipse 4501" filter="url(#filter0_f_1704_216)">
<path d="M83.7436 53.2629C83.7424 58.044 79.9537 62.1003 73.3379 62.1003C59.4261 62.0968 44.4168 58.0312 44.418 53.2501C44.4192 48.469 59.4306 44.4145 73.3424 44.418C79.3339 44.418 83.7448 48.4817 83.7436 53.2629Z" fill="url(#paint0_linear_1704_216)" fill-opacity="0.8"/>
</g>
<ellipse id="Ellipse 4502" cx="75.9872" cy="53.2801" rx="8.40383" ry="8.4035" transform="rotate(0.0144543 75.9872 53.2801)" fill="var(--fill-0, #08F500)"/>
<path id="Ellipse 4503" d="M75.985 43.9259C81.1368 43.9259 85.3131 48.1024 85.3131 53.254C85.3131 58.4056 81.1367 62.5821 75.985 62.5821C70.8334 62.582 66.657 58.4055 66.6569 53.254C66.6569 48.1024 70.8333 43.926 75.985 43.9259Z" stroke="url(#paint1_linear_1704_216)" stroke-width="0.88836"/>
</g>
<defs>
<filter id="filter0_f_1704_216" x="-1.77929e-06" y="-5.62519e-07" width="128.162" height="106.518" filterUnits="userSpaceOnUse" color-interpolation-filters="sRGB">
<feFlood flood-opacity="0" result="BackgroundImageFix"/>
<feBlend mode="normal" in="SourceGraphic" in2="BackgroundImageFix" result="shape"/>
<feGaussianBlur stdDeviation="22.209" result="effect1_foregroundBlur_1704_216"/>
</filter>
<linearGradient id="paint0_linear_1704_216" x1="84.0556" y1="54.8387" x2="38.2198" y2="54.8564" gradientUnits="userSpaceOnUse">
<stop offset="0.23598" stop-color="#08F500"/>
<stop offset="1" stop-color="#047D00"/>
</linearGradient>
<linearGradient id="paint1_linear_1704_216" x1="67.0919" y1="54.494" x2="84.8378" y2="54.494" gradientUnits="userSpaceOnUse">
<stop offset="0.481636" stop-color="#08F500" stop-opacity="0"/>
<stop offset="0.865083" stop-color="#08F500"/>
<stop offset="1" stop-color="#08F500"/>
</linearGradient>
</defs>
</svg>
