<svg preserveAspectRatio="none" width="100%" height="100%" overflow="visible" style="display: block;" viewBox="0 0 128.16 106.518" fill="none" xmlns="http://www.w3.org/2000/svg">
<g id="Group 2099">
<g id="Ellipse 4495" filter="url(#filter0_f_1704_221)">
<path d="M83.7416 53.2629C83.7404 58.044 79.9519 62.1003 73.3365 62.1003C59.4253 62.0968 44.4168 58.0312 44.418 53.2501C44.4192 48.469 59.4298 44.4145 73.3409 44.418C79.3322 44.418 83.7428 48.4817 83.7416 53.2629Z" fill="url(#paint0_linear_1704_221)" fill-opacity="0.8"/>
</g>
<ellipse id="Ellipse 4496" cx="75.9831" cy="53.2805" rx="8.40341" ry="8.4035" transform="rotate(0.0144555 75.9831 53.2805)" fill="var(--fill-0, #F5D400)"/>
<path id="Ellipse 4497" d="M75.985 43.9242C81.1364 43.9243 85.3121 48.1008 85.3121 53.2523C85.312 58.4038 81.1364 62.5803 75.985 62.5804C70.8334 62.5804 66.6569 58.4038 66.6568 53.2523C66.6568 48.1007 70.8334 43.9242 75.985 43.9242Z" stroke="url(#paint1_linear_1704_221)" stroke-width="0.888359"/>
</g>
<defs>
<filter id="filter0_f_1704_221" x="1.8042e-06" y="7.6741e-07" width="128.16" height="106.518" filterUnits="userSpaceOnUse" color-interpolation-filters="sRGB">
<feFlood flood-opacity="0" result="BackgroundImageFix"/>
<feBlend mode="normal" in="SourceGraphic" in2="BackgroundImageFix" result="shape"/>
<feGaussianBlur stdDeviation="22.209" result="effect1_foregroundBlur_1704_221"/>
</filter>
<linearGradient id="paint0_linear_1704_221" x1="84.0537" y1="54.8387" x2="38.2202" y2="54.8564" gradientUnits="userSpaceOnUse">
<stop offset="0.23598" stop-color="#F5D400"/>
<stop offset="1" stop-color="#675900"/>
</linearGradient>
<linearGradient id="paint1_linear_1704_221" x1="67.0919" y1="54.4923" x2="84.8369" y2="54.4923" gradientUnits="userSpaceOnUse">
<stop offset="0.481636" stop-color="#F5D400" stop-opacity="0"/>
<stop offset="0.865083" stop-color="#F5D400"/>
<stop offset="1" stop-color="#F5D400"/>
</linearGradient>
</defs>
</svg>
