<svg preserveAspectRatio="none" width="100%" height="100%" overflow="visible" style="display: block;" viewBox="0 0 48 48.0668" fill="none" xmlns="http://www.w3.org/2000/svg">
<path id="Nuxx logo" d="M1.56348 27.0918C3.63816 25.0157 7.00475 25.0161 9.08203 27.0928L10.8223 28.8262C10.9356 28.9407 11.0951 29.0136 11.2725 29.0137C11.4483 29.0137 11.6087 28.9419 11.7207 28.8262L13.458 27.0928C15.5341 25.0162 18.9005 25.0167 20.9766 27.0928C23.051 29.1688 23.0511 32.534 20.9766 34.6113L19.2441 36.3477C19.1249 36.462 19.0508 36.6253 19.0508 36.8047C19.0509 36.9702 19.1113 37.1207 19.2178 37.2344L20.9766 38.9912C23.0514 41.0671 23.0513 44.4341 20.9766 46.5098C18.9005 48.5864 15.5341 48.5852 13.458 46.5098L11.7207 44.7764C11.6049 44.6596 11.4419 44.5879 11.2656 44.5879C11.0914 44.5879 10.931 44.6601 10.8164 44.7744L9.07715 46.5098C7.00175 48.5851 3.63609 48.585 1.55859 46.5098C-0.518489 44.4343 -0.518489 41.0671 1.55859 38.9912L3.29492 37.2529C3.41348 37.1362 3.48926 36.9755 3.48926 36.7969C3.48925 36.6313 3.42594 36.4809 3.32227 36.3672L1.56445 34.6094C-0.511917 32.5333 -0.511834 29.1678 1.56348 27.0918ZM38.9121 27.0801C40.9894 25.0035 44.356 25.0031 46.4307 27.0791C48.5061 29.1552 48.5064 32.5216 46.4297 34.5977L44.6719 36.3545C44.5682 36.4682 44.505 36.6187 44.5049 36.7842C44.5049 36.9628 44.5807 37.1244 44.6992 37.2412L46.4355 38.9785C48.5126 41.0544 48.5126 44.4216 46.4355 46.4971C44.3581 48.5724 40.9924 48.5725 38.917 46.4971L37.1777 44.7617C37.0632 44.6474 36.9027 44.5752 36.7285 44.5752C36.5523 44.5752 36.3892 44.6469 36.2734 44.7637L34.5361 46.4971C32.46 48.5726 29.0937 48.5738 27.0176 46.4971C24.9429 44.4214 24.9428 41.0543 27.0176 38.9785L28.7764 37.2217C28.8828 37.108 28.9433 36.9575 28.9434 36.792C28.9434 36.6125 28.8694 36.4493 28.75 36.335L27.0176 34.5986C24.9431 32.5212 24.943 29.1561 27.0176 27.0801C29.0936 25.0041 32.46 25.0036 34.5361 27.0801L36.2734 28.8145C36.3854 28.9302 36.5458 29.002 36.7217 29.002C36.8988 29.0019 37.0586 28.9287 37.1719 28.8145L38.9121 27.0801ZM11.2705 0C16.7371 0.000104461 21.2934 3.89481 22.3203 9.06152C22.3704 9.31482 22.4112 9.57619 22.4443 9.83887C22.5032 10.3067 22.5371 10.7814 22.5371 11.2646V17.2197C22.5369 20.1559 20.1573 22.536 17.2227 22.5361C14.288 22.5361 11.9054 20.156 11.9053 17.2197V11.2607C11.905 10.9066 11.6203 10.6223 11.2695 10.6221C10.9185 10.6221 10.6341 10.9054 10.6318 11.2559V17.2197C10.6318 20.1561 8.25137 22.5361 5.31543 22.5361C2.3797 22.5359 5.94947e-05 20.1559 0 17.2197L0.00195312 11.2656V11.2646C0.00215391 5.04415 5.04737 0 11.2705 0ZM42.6826 0C45.6186 0 48 2.38189 48 5.31348V11.2646C48 11.7525 47.9644 12.2294 47.9053 12.6973C47.8715 12.9585 47.8317 13.217 47.7812 13.4746C46.7549 18.6404 42.1985 22.536 36.7314 22.5361C30.5096 22.5361 25.4648 17.4901 25.4648 11.2646L25.4619 5.31348C25.4617 2.38189 27.842 0 30.7773 0C33.7128 0.000138342 36.0918 2.38197 36.0918 5.31348V6.61328C36.0918 6.66344 36.0928 10.9697 36.0928 11.2695C36.0952 11.6217 36.3792 11.9051 36.7295 11.9053C37.0822 11.9053 37.3672 11.6179 37.3672 11.2646V5.31348C37.3674 2.38171 39.7467 3.83689e-05 42.6826 0Z" fill="var(--fill-0, #1E1E1E)"/>
</svg>
