<svg preserveAspectRatio="none" width="100%" height="100%" overflow="visible" style="display: block;" viewBox="0 0 117.516 97.6729" fill="none" xmlns="http://www.w3.org/2000/svg">
<g id="Group 2101">
<g id="Ellipse 4489" filter="url(#filter0_f_1704_264)">
<path d="M76.7864 48.8399C76.7853 53.224 73.3115 56.9436 67.2456 56.9436C54.49 56.9404 40.7282 53.2123 40.7293 48.8282C40.7304 44.444 54.4941 40.7261 67.2497 40.7293C72.7432 40.7293 76.7875 44.4557 76.7864 48.8399Z" fill="url(#paint0_linear_1704_264)" fill-opacity="0.8"/>
</g>
<ellipse id="Ellipse 4490" cx="69.6728" cy="48.8546" rx="7.70536" ry="7.70582" transform="rotate(0.0144557 69.6728 48.8546)" fill="var(--fill-0, #F500C8)"/>
<path id="Ellipse 4491" d="M69.6741 40.2761C74.3978 40.2761 78.2268 44.106 78.2268 48.8298C78.2266 53.5536 74.3976 57.3826 69.6741 57.3826C64.9506 57.3825 61.1216 53.5535 61.1214 48.8298C61.1214 44.106 64.9505 40.2762 69.6741 40.2761Z" stroke="url(#paint1_linear_1704_264)" stroke-width="0.814586"/>
</g>
<defs>
<filter id="filter0_f_1704_264" x="-1.73505e-06" y="6.66827e-07" width="117.516" height="97.6729" filterUnits="userSpaceOnUse" color-interpolation-filters="sRGB">
<feFlood flood-opacity="0" result="BackgroundImageFix"/>
<feBlend mode="normal" in="SourceGraphic" in2="BackgroundImageFix" result="shape"/>
<feGaussianBlur stdDeviation="20.3646" result="effect1_foregroundBlur_1704_264"/>
</filter>
<linearGradient id="paint0_linear_1704_264" x1="77.0725" y1="50.2848" x2="35.0463" y2="50.3011" gradientUnits="userSpaceOnUse">
<stop offset="0.23598" stop-color="#F500C8"/>
<stop offset="1" stop-color="#4D003F"/>
</linearGradient>
<linearGradient id="paint1_linear_1704_264" x1="61.52" y1="49.9667" x2="77.791" y2="49.9667" gradientUnits="userSpaceOnUse">
<stop offset="0.481636" stop-color="#F500C8" stop-opacity="0"/>
<stop offset="0.865083" stop-color="#F500C8"/>
<stop offset="1" stop-color="#F500C8"/>
</linearGradient>
</defs>
</svg>
