<svg preserveAspectRatio="none" width="100%" height="100%" overflow="visible" style="display: block;" viewBox="0 0 128.162 106.518" fill="none" xmlns="http://www.w3.org/2000/svg">
<g id="Group 2123">
<g id="Ellipse 4492" filter="url(#filter0_f_1704_172)">
<path d="M83.7444 53.2627C83.7432 58.0437 79.9545 62.0999 73.3385 62.0999C59.4264 62.0964 44.4168 58.0309 44.418 53.2499C44.4192 48.4689 59.4309 44.4145 73.343 44.418C79.3347 44.418 83.7456 48.4816 83.7444 53.2627Z" fill="url(#paint0_linear_1704_172)" fill-opacity="0.8"/>
</g>
<ellipse id="Ellipse 4493" cx="75.9864" cy="53.2783" rx="8.40401" ry="8.40331" transform="rotate(0.0144539 75.9864 53.2783)" fill="var(--fill-0, #B8F500)"/>
<path id="Ellipse 4494" d="M75.9835 43.9223C81.1354 43.9223 85.3126 48.0989 85.3126 53.2504C85.3125 58.4018 81.1353 62.5776 75.9835 62.5776C70.832 62.5773 66.6556 58.4017 66.6554 53.2504C66.6554 48.099 70.8318 43.9225 75.9835 43.9223Z" stroke="url(#paint1_linear_1704_172)" stroke-width="0.888359"/>
</g>
<defs>
<filter id="filter0_f_1704_172" x="1.68639e-06" y="-1.68756e-06" width="128.162" height="106.518" filterUnits="userSpaceOnUse" color-interpolation-filters="sRGB">
<feFlood flood-opacity="0" result="BackgroundImageFix"/>
<feBlend mode="normal" in="SourceGraphic" in2="BackgroundImageFix" result="shape"/>
<feGaussianBlur stdDeviation="22.209" result="effect1_foregroundBlur_1704_172"/>
</filter>
<linearGradient id="paint0_linear_1704_172" x1="84.0565" y1="54.8385" x2="38.2197" y2="54.8562" gradientUnits="userSpaceOnUse">
<stop offset="0.23598" stop-color="#B8F500"/>
<stop offset="1" stop-color="#648500"/>
</linearGradient>
<linearGradient id="paint1_linear_1704_172" x1="67.0904" y1="54.4902" x2="84.8367" y2="54.4902" gradientUnits="userSpaceOnUse">
<stop offset="0.481636" stop-color="#B8F500" stop-opacity="0"/>
<stop offset="0.865083" stop-color="#B8F500"/>
<stop offset="1" stop-color="#B8F500"/>
</linearGradient>
</defs>
</svg>
