<svg preserveAspectRatio="none" width="100%" height="100%" overflow="visible" style="display: block;" viewBox="0 0 128.16 106.518" fill="none" xmlns="http://www.w3.org/2000/svg">
<g id="Group 2102">
<g id="Ellipse 4498" filter="url(#filter0_f_1704_49)">
<path d="M83.7418 53.2628C83.7406 58.0439 79.9521 62.1002 73.3366 62.1002C59.4254 62.0967 44.4168 58.0312 44.418 53.2501C44.4192 48.469 59.4299 44.4145 73.3411 44.418C79.3323 44.418 83.743 48.4817 83.7418 53.2628Z" fill="url(#paint0_linear_1704_49)" fill-opacity="0.8"/>
</g>
<ellipse id="Ellipse 4499" cx="75.9856" cy="53.2774" rx="8.40345" ry="8.40345" transform="rotate(0.0144567 75.9856 53.2774)" fill="var(--fill-0, #A967FF)"/>
<path id="Ellipse 4500" d="M75.9862 43.923C81.1377 43.9231 85.3134 48.0996 85.3134 53.2511C85.3133 58.4025 81.1376 62.5781 75.9862 62.5782C70.8347 62.5782 66.6582 58.4026 66.6581 53.2511C66.6581 48.0995 70.8346 43.923 75.9862 43.923Z" stroke="url(#paint1_linear_1704_49)" stroke-width="0.888359"/>
</g>
<defs>
<filter id="filter0_f_1704_49" x="1.15624e-06" y="3.57628e-07" width="128.16" height="106.518" filterUnits="userSpaceOnUse" color-interpolation-filters="sRGB">
<feFlood flood-opacity="0" result="BackgroundImageFix"/>
<feBlend mode="normal" in="SourceGraphic" in2="BackgroundImageFix" result="shape"/>
<feGaussianBlur stdDeviation="22.209" result="effect1_foregroundBlur_1704_49"/>
</filter>
<linearGradient id="paint0_linear_1704_49" x1="84.0539" y1="54.8386" x2="38.2201" y2="54.8564" gradientUnits="userSpaceOnUse">
<stop offset="0.23598" stop-color="#A967FF"/>
<stop offset="1" stop-color="#563A7B"/>
</linearGradient>
<linearGradient id="paint1_linear_1704_49" x1="67.0931" y1="54.491" x2="84.8382" y2="54.491" gradientUnits="userSpaceOnUse">
<stop offset="0.481636" stop-color="#A967FF" stop-opacity="0"/>
<stop offset="0.865083" stop-color="#A967FF"/>
<stop offset="1" stop-color="#A967FF"/>
</linearGradient>
</defs>
</svg>
