<svg preserveAspectRatio="none" width="100%" height="100%" overflow="visible" style="display: block;" viewBox="0 0 128.16 106.518" fill="none" xmlns="http://www.w3.org/2000/svg">
<g id="Group 2121">
<g id="Ellipse 4495" filter="url(#filter0_f_1704_158)">
<path d="M83.7418 53.2628C83.7406 58.0439 79.9521 62.1003 73.3366 62.1003C59.4254 62.0968 44.4168 58.0312 44.418 53.2501C44.4192 48.469 59.4299 44.4145 73.3411 44.418C79.3323 44.418 83.743 48.4817 83.7418 53.2628Z" fill="url(#paint0_linear_1704_158)" fill-opacity="0.8"/>
</g>
<ellipse id="Ellipse 4496" cx="75.985" cy="53.2787" rx="8.40344" ry="8.40347" transform="rotate(0.0144563 75.985 53.2787)" fill="var(--fill-0, #00F5E1)"/>
<path id="Ellipse 4497" d="M75.9855 43.9249C81.137 43.925 85.3126 48.1015 85.3126 53.253C85.3125 58.4045 81.1369 62.5801 75.9855 62.5802C70.834 62.5802 66.6575 58.4046 66.6574 53.253C66.6574 48.1015 70.8339 43.9249 75.9855 43.9249Z" stroke="url(#paint1_linear_1704_158)" stroke-width="0.888359"/>
</g>
<defs>
<filter id="filter0_f_1704_158" x="1.58744e-06" y="1.12131e-06" width="128.16" height="106.518" filterUnits="userSpaceOnUse" color-interpolation-filters="sRGB">
<feFlood flood-opacity="0" result="BackgroundImageFix"/>
<feBlend mode="normal" in="SourceGraphic" in2="BackgroundImageFix" result="shape"/>
<feGaussianBlur stdDeviation="22.209" result="effect1_foregroundBlur_1704_158"/>
</filter>
<linearGradient id="paint0_linear_1704_158" x1="84.0538" y1="54.8387" x2="38.2201" y2="54.8564" gradientUnits="userSpaceOnUse">
<stop offset="0.23598" stop-color="#00F5E1"/>
<stop offset="1" stop-color="#008278"/>
</linearGradient>
<linearGradient id="paint1_linear_1704_158" x1="67.0924" y1="54.493" x2="84.8374" y2="54.493" gradientUnits="userSpaceOnUse">
<stop offset="0.481636" stop-color="#00F5E1" stop-opacity="0"/>
<stop offset="0.865083" stop-color="#00F5E1"/>
<stop offset="1" stop-color="#00F5E1"/>
</linearGradient>
</defs>
</svg>
