<svg preserveAspectRatio="none" width="100%" height="100%" overflow="visible" style="display: block;" viewBox="0 0 117.516 97.6727" fill="none" xmlns="http://www.w3.org/2000/svg">
<g id="Group 2134">
<g id="Ellipse 4495" filter="url(#filter0_f_1704_127)">
<path d="M76.7869 48.8398C76.7858 53.2239 73.312 56.9434 67.246 56.9434C54.4902 56.9402 40.7282 53.2122 40.7293 48.8281C40.7304 44.4439 54.4943 40.7261 67.25 40.7293C72.7437 40.7293 76.788 44.4556 76.7869 48.8398Z" fill="url(#paint0_linear_1704_127)" fill-opacity="0.8"/>
</g>
<ellipse id="Ellipse 4496" cx="69.6775" cy="48.8546" rx="7.70545" ry="7.70573" transform="rotate(0.0144568 69.6775 48.8546)" fill="var(--fill-0, #00F5E1)"/>
<path id="Ellipse 4497" d="M69.6756 40.2775C74.3993 40.2775 78.2284 44.1073 78.2284 48.8312C78.2281 53.5548 74.3992 57.3839 69.6756 57.3839C64.9522 57.3838 61.1232 53.5547 61.1229 48.8312C61.1229 44.1074 64.952 40.2776 69.6756 40.2775Z" stroke="url(#paint1_linear_1704_127)" stroke-width="0.814586"/>
</g>
<defs>
<filter id="filter0_f_1704_127" x="1.62493e-06" y="-5.28991e-07" width="117.516" height="97.6727" filterUnits="userSpaceOnUse" color-interpolation-filters="sRGB">
<feFlood flood-opacity="0" result="BackgroundImageFix"/>
<feBlend mode="normal" in="SourceGraphic" in2="BackgroundImageFix" result="shape"/>
<feGaussianBlur stdDeviation="20.3646" result="effect1_foregroundBlur_1704_127"/>
</filter>
<linearGradient id="paint0_linear_1704_127" x1="77.073" y1="50.2847" x2="35.0463" y2="50.301" gradientUnits="userSpaceOnUse">
<stop offset="0.23598" stop-color="#00F5E1"/>
<stop offset="1" stop-color="#008278"/>
</linearGradient>
<linearGradient id="paint1_linear_1704_127" x1="61.5216" y1="49.9679" x2="77.7927" y2="49.9679" gradientUnits="userSpaceOnUse">
<stop offset="0.481636" stop-color="#00F5E1" stop-opacity="0"/>
<stop offset="0.865083" stop-color="#00F5E1"/>
<stop offset="1" stop-color="#00F5E1"/>
</linearGradient>
</defs>
</svg>
