<svg preserveAspectRatio="none" width="100%" height="100%" overflow="visible" style="display: block;" viewBox="0 0 141.052 165.766" fill="none" xmlns="http://www.w3.org/2000/svg">
<g id="Group 2140">
<g id="Ellipse 4498" filter="url(#filter0_f_1704_181)">
<path d="M87.1186 119.153C78.1195 123.841 66.7692 120.69 60.2795 108.239C46.6396 82.0549 39.5677 49.82 48.5668 45.132C57.5659 40.444 79.9215 64.717 93.5614 90.9015C99.4387 102.177 96.1176 114.465 87.1186 119.153Z" fill="url(#paint0_linear_1704_181)" fill-opacity="0.8"/>
</g>
<ellipse id="Ellipse 4499" cx="17.8349" cy="17.8347" rx="17.8349" ry="17.8347" transform="matrix(0.461992 0.886884 -0.886875 0.462009 87.0551 80.5098)" fill="var(--fill-0, black)"/>
<path id="Ellipse 4500" d="M96.6903 95.6001C101.631 105.079 97.9526 116.768 88.4744 121.709C78.996 126.65 67.3071 122.97 62.3665 113.492C57.4263 104.013 61.1047 92.3245 70.5829 87.3838C80.0611 82.4433 91.7496 86.1218 96.6903 95.6001Z" stroke="url(#paint1_linear_1704_181)"/>
</g>
<defs>
<filter id="filter0_f_1704_181" x="9.53674e-07" y="9.53674e-07" width="141.052" height="165.766" filterUnits="userSpaceOnUse" color-interpolation-filters="sRGB">
<feFlood flood-opacity="0" result="BackgroundImageFix"/>
<feBlend mode="normal" in="SourceGraphic" in2="BackgroundImageFix" result="shape"/>
<feGaussianBlur stdDeviation="22.2738" result="effect1_foregroundBlur_1704_181"/>
</filter>
<linearGradient id="paint0_linear_1704_181" x1="84.459" y1="121.286" x2="39.4621" y2="35.0442" gradientUnits="userSpaceOnUse">
<stop offset="0.23598" stop-color="#A967FF"/>
<stop offset="1" stop-color="#563A7B"/>
</linearGradient>
<linearGradient id="paint1_linear_1704_181" x1="68.4708" y1="89.0264" x2="85.879" y2="122.423" gradientUnits="userSpaceOnUse">
<stop offset="0.481636" stop-color="#A967FF" stop-opacity="0"/>
<stop offset="0.865083" stop-color="#A967FF"/>
<stop offset="1" stop-color="#A967FF"/>
</linearGradient>
</defs>
</svg>
