<svg preserveAspectRatio="none" width="100%" height="100%" overflow="visible" style="display: block;" viewBox="0 0 117.517 97.6725" fill="none" xmlns="http://www.w3.org/2000/svg">
<g id="Group 2103">
<g id="Ellipse 4501" filter="url(#filter0_f_1704_71)">
<path d="M76.7874 48.8396C76.7863 53.2237 73.3124 56.9432 67.2463 56.9432C54.4904 56.94 40.7282 53.212 40.7293 48.828C40.7304 44.4439 54.4945 40.7261 67.2504 40.7293C72.7441 40.7293 76.7885 44.4556 76.7874 48.8396Z" fill="url(#paint0_linear_1704_71)" fill-opacity="0.8"/>
</g>
<ellipse id="Ellipse 4502" cx="69.6742" cy="48.8536" rx="7.70556" ry="7.70562" transform="rotate(0.0144574 69.6742 48.8536)" fill="var(--fill-0, #0AB5E9)"/>
<path id="Ellipse 4503" d="M69.6737 40.2769C74.3973 40.2769 78.2272 44.1061 78.2274 48.8297C78.2274 53.5535 74.3974 57.3834 69.6737 57.3834C64.95 57.3832 61.1209 53.5534 61.1209 48.8297C61.1211 44.1062 64.9502 40.2771 69.6737 40.2769Z" stroke="url(#paint1_linear_1704_71)" stroke-width="0.814586"/>
</g>
<defs>
<filter id="filter0_f_1704_71" x="-7.31554e-07" y="-9.23872e-07" width="117.517" height="97.6725" filterUnits="userSpaceOnUse" color-interpolation-filters="sRGB">
<feFlood flood-opacity="0" result="BackgroundImageFix"/>
<feBlend mode="normal" in="SourceGraphic" in2="BackgroundImageFix" result="shape"/>
<feGaussianBlur stdDeviation="20.3646" result="effect1_foregroundBlur_1704_71"/>
</filter>
<linearGradient id="paint0_linear_1704_71" x1="77.0735" y1="50.2846" x2="35.0462" y2="50.3009" gradientUnits="userSpaceOnUse">
<stop offset="0.23598" stop-color="#0AB5E9"/>
<stop offset="1" stop-color="#04607C"/>
</linearGradient>
<linearGradient id="paint1_linear_1704_71" x1="61.5196" y1="49.9672" x2="77.791" y2="49.9672" gradientUnits="userSpaceOnUse">
<stop offset="0.481636" stop-color="#0AB5E9" stop-opacity="0"/>
<stop offset="0.865083" stop-color="#0AB5E9"/>
<stop offset="1" stop-color="#0AB5E9" stop-opacity="0.666667"/>
</linearGradient>
</defs>
</svg>
