<svg preserveAspectRatio="none" width="100%" height="100%" overflow="visible" style="display: block;" viewBox="0 0 117.517 97.6721" fill="none" xmlns="http://www.w3.org/2000/svg">
<g id="Group 2100">
<g id="Ellipse 4492" filter="url(#filter0_f_1704_191)">
<path d="M76.7879 48.8395C76.7868 53.2235 73.3129 56.9429 67.2467 56.9429C54.4906 56.9397 40.7282 53.2118 40.7293 48.8278C40.7304 44.4438 54.4947 40.7261 67.2508 40.7293C72.7445 40.7293 76.789 44.4555 76.7879 48.8395Z" fill="url(#paint0_linear_1704_191)" fill-opacity="0.8"/>
</g>
<ellipse id="Ellipse 4493" cx="69.674" cy="48.8524" rx="7.70567" ry="7.70547" transform="rotate(0.0144551 69.674 48.8524)" fill="var(--fill-0, #F55A00)"/>
<path id="Ellipse 4494" d="M69.6744 40.2772C74.3982 40.2772 78.228 44.1063 78.2281 48.8299C78.2281 53.5536 74.3982 57.3836 69.6744 57.3836C64.9508 57.3834 61.1217 53.5535 61.1217 48.8299C61.1218 44.1064 64.9509 40.2774 69.6744 40.2772Z" stroke="url(#paint1_linear_1704_191)" stroke-width="0.814586"/>
</g>
<defs>
<filter id="filter0_f_1704_191" x="4.00934e-07" y="-7.6741e-07" width="117.517" height="97.6722" filterUnits="userSpaceOnUse" color-interpolation-filters="sRGB">
<feFlood flood-opacity="0" result="BackgroundImageFix"/>
<feBlend mode="normal" in="SourceGraphic" in2="BackgroundImageFix" result="shape"/>
<feGaussianBlur stdDeviation="20.3646" result="effect1_foregroundBlur_1704_191"/>
</filter>
<linearGradient id="paint0_linear_1704_191" x1="77.074" y1="50.2844" x2="35.0461" y2="50.3007" gradientUnits="userSpaceOnUse">
<stop offset="0.23598" stop-color="#F55A00"/>
<stop offset="1" stop-color="#742A00"/>
</linearGradient>
<linearGradient id="paint1_linear_1704_191" x1="61.5204" y1="49.9673" x2="77.792" y2="49.9673" gradientUnits="userSpaceOnUse">
<stop offset="0.481636" stop-color="#F55A00" stop-opacity="0"/>
<stop offset="0.865083" stop-color="#F55A00"/>
<stop offset="1" stop-color="#F55A00"/>
</linearGradient>
</defs>
</svg>
