<svg preserveAspectRatio="none" width="100%" height="100%" overflow="visible" style="display: block;" viewBox="0 0 128.159 106.519" fill="none" xmlns="http://www.w3.org/2000/svg">
<g id="Group 2100">
<g id="Ellipse 4492" filter="url(#filter0_f_1704_201)">
<path d="M83.741 53.263C83.7398 58.0442 79.9513 62.1006 73.336 62.1006C59.4251 62.097 44.4168 58.0314 44.418 53.2502C44.4192 48.469 59.4296 44.4145 73.3404 44.418C79.3316 44.418 83.7422 48.4818 83.741 53.263Z" fill="url(#paint0_linear_1704_201)" fill-opacity="0.8"/>
</g>
<ellipse id="Ellipse 4493" cx="75.9843" cy="53.2785" rx="8.40326" ry="8.4036" transform="rotate(0.0144555 75.9843 53.2785)" fill="var(--fill-0, #F55A00)"/>
<path id="Ellipse 4494" d="M75.9858 43.9225C81.1371 43.9227 85.3129 48.0991 85.3129 53.2506C85.3129 58.4021 81.1371 62.5785 75.9858 62.5787C70.8343 62.5787 66.6577 58.4022 66.6576 53.2506C66.6576 48.0989 70.8343 43.9225 75.9858 43.9225Z" stroke="url(#paint1_linear_1704_201)" stroke-width="0.88836"/>
</g>
<defs>
<filter id="filter0_f_1704_201" x="1.21002e-06" y="-1.78441e-06" width="128.159" height="106.519" filterUnits="userSpaceOnUse" color-interpolation-filters="sRGB">
<feFlood flood-opacity="0" result="BackgroundImageFix"/>
<feBlend mode="normal" in="SourceGraphic" in2="BackgroundImageFix" result="shape"/>
<feGaussianBlur stdDeviation="22.209" result="effect1_foregroundBlur_1704_201"/>
</filter>
<linearGradient id="paint0_linear_1704_201" x1="84.053" y1="54.8388" x2="38.2203" y2="54.8565" gradientUnits="userSpaceOnUse">
<stop offset="0.23598" stop-color="#F55A00"/>
<stop offset="1" stop-color="#742A00"/>
</linearGradient>
<linearGradient id="paint1_linear_1704_201" x1="67.0927" y1="54.4907" x2="84.8374" y2="54.4907" gradientUnits="userSpaceOnUse">
<stop offset="0.481636" stop-color="#F55A00" stop-opacity="0"/>
<stop offset="0.865083" stop-color="#F55A00"/>
<stop offset="1" stop-color="#F55A00"/>
</linearGradient>
</defs>
</svg>
