<svg preserveAspectRatio="none" width="100%" height="100%" overflow="visible" style="display: block;" viewBox="0 0 128.162 106.518" fill="none" xmlns="http://www.w3.org/2000/svg">
<g id="Group 2126">
<g id="Ellipse 4498" filter="url(#filter0_f_1704_167)">
<path d="M83.7437 53.2628C83.7425 58.0439 79.9538 62.1003 73.338 62.1003C59.4261 62.0968 44.4168 58.0312 44.418 53.2501C44.4192 48.469 59.4306 44.4145 73.3425 44.418C79.334 44.418 83.7449 48.4817 83.7437 53.2628Z" fill="url(#paint0_linear_1704_167)" fill-opacity="0.8"/>
</g>
<ellipse id="Ellipse 4499" cx="75.9876" cy="53.2774" rx="8.40385" ry="8.40347" transform="rotate(0.0144555 75.9876 53.2774)" fill="var(--fill-0, #F59700)"/>
<path id="Ellipse 4500" d="M75.9845 43.9246C81.1363 43.9246 85.3126 48.1011 85.3126 53.2527C85.3125 58.4042 81.1363 62.5799 75.9845 62.5799C70.8329 62.5797 66.6565 58.4042 66.6564 53.2527C66.6564 48.1012 70.8328 43.9247 75.9845 43.9246Z" stroke="url(#paint1_linear_1704_167)" stroke-width="0.888359"/>
</g>
<defs>
<filter id="filter0_f_1704_167" x="-1.729e-06" y="-5.66244e-07" width="128.162" height="106.518" filterUnits="userSpaceOnUse" color-interpolation-filters="sRGB">
<feFlood flood-opacity="0" result="BackgroundImageFix"/>
<feBlend mode="normal" in="SourceGraphic" in2="BackgroundImageFix" result="shape"/>
<feGaussianBlur stdDeviation="22.209" result="effect1_foregroundBlur_1704_167"/>
</filter>
<linearGradient id="paint0_linear_1704_167" x1="84.0557" y1="54.8387" x2="38.2198" y2="54.8564" gradientUnits="userSpaceOnUse">
<stop offset="0.23598" stop-color="#F59700"/>
<stop offset="1" stop-color="#794B00"/>
</linearGradient>
<linearGradient id="paint1_linear_1704_167" x1="67.0914" y1="54.4927" x2="84.8373" y2="54.4927" gradientUnits="userSpaceOnUse">
<stop offset="0.481636" stop-color="#F59700" stop-opacity="0"/>
<stop offset="0.865083" stop-color="#F59700"/>
<stop offset="1" stop-color="#F59700"/>
</linearGradient>
</defs>
</svg>
