<svg preserveAspectRatio="none" width="100%" height="100%" overflow="visible" style="display: block;" viewBox="0 0 221.633 184.206" fill="none" xmlns="http://www.w3.org/2000/svg">
<g id="Group 2098">
<g id="Ellipse 4501" filter="url(#filter0_f_1704_112)">
<path d="M144.819 92.1092C144.817 100.377 138.265 107.392 126.825 107.392C102.767 107.386 76.8116 100.355 76.8137 92.0871C76.8158 83.8191 102.775 76.8076 126.832 76.8137C137.194 76.8137 144.821 83.8412 144.819 92.1092Z" fill="url(#paint0_linear_1704_112)" fill-opacity="0.8"/>
</g>
<ellipse id="Ellipse 4502" cx="131.402" cy="92.1385" rx="14.5327" ry="14.5322" transform="rotate(0.0144551 131.402 92.1385)" fill="var(--fill-0, #0AE98A)"/>
<path id="Ellipse 4503" d="M131.402 76.2307C140.163 76.2308 147.265 83.3325 147.265 92.093C147.265 100.853 140.163 107.955 131.402 107.955C122.641 107.955 115.539 100.854 115.539 92.093C115.539 83.3324 122.642 76.2307 131.402 76.2307Z" stroke="url(#paint1_linear_1704_112)"/>
</g>
<defs>
<filter id="filter0_f_1704_112" x="-2.24728e-06" y="-3.2112e-06" width="221.633" height="184.205" filterUnits="userSpaceOnUse" color-interpolation-filters="sRGB">
<feFlood flood-opacity="0" result="BackgroundImageFix"/>
<feBlend mode="normal" in="SourceGraphic" in2="BackgroundImageFix" result="shape"/>
<feGaussianBlur stdDeviation="38.4069" result="effect1_foregroundBlur_1704_112"/>
</filter>
<linearGradient id="paint0_linear_1704_112" x1="145.359" y1="94.8342" x2="66.0953" y2="94.8649" gradientUnits="userSpaceOnUse">
<stop offset="0.23598" stop-color="#0AE98A"/>
<stop offset="1" stop-color="#044429"/>
</linearGradient>
<linearGradient id="paint1_linear_1704_112" x1="116.023" y1="94.2377" x2="146.711" y2="94.2377" gradientUnits="userSpaceOnUse">
<stop offset="0.481636" stop-color="#0AE98A" stop-opacity="0"/>
<stop offset="0.865083" stop-color="#0AE98A"/>
<stop offset="1" stop-color="#0AE98A"/>
</linearGradient>
</defs>
</svg>
