<svg preserveAspectRatio="none" width="100%" height="100%" overflow="visible" style="display: block;" viewBox="0 0 221.635 184.206" fill="none" xmlns="http://www.w3.org/2000/svg">
<g id="Group 2137">
<g id="Ellipse 4498" filter="url(#filter0_f_1704_149)">
<path d="M144.821 92.1095C144.819 100.378 138.267 107.392 126.826 107.392C102.768 107.386 76.8116 100.356 76.8137 92.0874C76.8158 83.8193 102.776 76.8077 126.834 76.8137C137.195 76.8137 144.823 83.8413 144.821 92.1095Z" fill="url(#paint0_linear_1704_149)" fill-opacity="0.8"/>
</g>
<ellipse id="Ellipse 4499" cx="131.407" cy="92.1361" rx="14.5331" ry="14.5324" transform="rotate(0.0144558 131.407 92.1361)" fill="var(--fill-0, #F59700)"/>
<path id="Ellipse 4500" d="M131.402 76.2313C140.163 76.2313 147.265 83.333 147.265 92.0936C147.265 100.854 140.163 107.957 131.402 107.957C122.641 107.957 115.538 100.854 115.538 92.0936C115.539 83.3331 122.641 76.2314 131.402 76.2313Z" stroke="url(#paint1_linear_1704_149)"/>
</g>
<defs>
<filter id="filter0_f_1704_149" x="7.93952e-07" y="-2.45124e-06" width="221.635" height="184.206" filterUnits="userSpaceOnUse" color-interpolation-filters="sRGB">
<feFlood flood-opacity="0" result="BackgroundImageFix"/>
<feBlend mode="normal" in="SourceGraphic" in2="BackgroundImageFix" result="shape"/>
<feGaussianBlur stdDeviation="38.4069" result="effect1_foregroundBlur_1704_149"/>
</filter>
<linearGradient id="paint0_linear_1704_149" x1="145.361" y1="94.8346" x2="66.095" y2="94.8652" gradientUnits="userSpaceOnUse">
<stop offset="0.23598" stop-color="#F59700"/>
<stop offset="1" stop-color="#794B00"/>
</linearGradient>
<linearGradient id="paint1_linear_1704_149" x1="116.022" y1="94.2387" x2="146.711" y2="94.2387" gradientUnits="userSpaceOnUse">
<stop offset="0.481636" stop-color="#F59700" stop-opacity="0"/>
<stop offset="0.865083" stop-color="#F59700"/>
<stop offset="1" stop-color="#F59700"/>
</linearGradient>
</defs>
</svg>
