<svg preserveAspectRatio="none" width="100%" height="100%" overflow="visible" style="display: block;" viewBox="0 0 128.16 106.518" fill="none" xmlns="http://www.w3.org/2000/svg">
<g id="Group 2103">
<g id="Ellipse 4501" filter="url(#filter0_f_1704_206)">
<path d="M83.7419 53.2628C83.7407 58.0439 79.9522 62.1002 73.3367 62.1002C59.4255 62.0967 44.4168 58.0311 44.418 53.2501C44.4192 48.469 59.4299 44.4145 73.3411 44.418C79.3324 44.418 83.7431 48.4817 83.7419 53.2628Z" fill="url(#paint0_linear_1704_206)" fill-opacity="0.8"/>
</g>
<ellipse id="Ellipse 4502" cx="75.983" cy="53.2803" rx="8.40347" ry="8.40344" transform="rotate(0.0144574 75.983 53.2803)" fill="var(--fill-0, #0AB5E9)"/>
<path id="Ellipse 4503" d="M75.9842 43.9253C81.1357 43.9254 85.3114 48.1019 85.3114 53.2535C85.3113 58.4049 81.1357 62.5805 75.9842 62.5806C70.8327 62.5806 66.6562 58.4049 66.6561 53.2535C66.6561 48.1019 70.8326 43.9253 75.9842 43.9253Z" stroke="url(#paint1_linear_1704_206)" stroke-width="0.888359"/>
</g>
<defs>
<filter id="filter0_f_1704_206" x="-1.54343e-06" y="1.78814e-07" width="128.16" height="106.518" filterUnits="userSpaceOnUse" color-interpolation-filters="sRGB">
<feFlood flood-opacity="0" result="BackgroundImageFix"/>
<feBlend mode="normal" in="SourceGraphic" in2="BackgroundImageFix" result="shape"/>
<feGaussianBlur stdDeviation="22.209" result="effect1_foregroundBlur_1704_206"/>
</filter>
<linearGradient id="paint0_linear_1704_206" x1="84.0539" y1="54.8386" x2="38.2201" y2="54.8563" gradientUnits="userSpaceOnUse">
<stop offset="0.23598" stop-color="#0AB5E9"/>
<stop offset="1" stop-color="#04607C"/>
</linearGradient>
<linearGradient id="paint1_linear_1704_206" x1="67.0911" y1="54.4934" x2="84.8362" y2="54.4934" gradientUnits="userSpaceOnUse">
<stop offset="0.481636" stop-color="#0AB5E9" stop-opacity="0"/>
<stop offset="0.865083" stop-color="#0AB5E9"/>
<stop offset="1" stop-color="#0AB5E9" stop-opacity="0.666667"/>
</linearGradient>
</defs>
</svg>
