<svg preserveAspectRatio="none" width="100%" height="100%" overflow="visible" style="display: block;" viewBox="0 0 117.516 97.6726" fill="none" xmlns="http://www.w3.org/2000/svg">
<g id="Group 2098">
<g id="Ellipse 4501" filter="url(#filter0_f_1704_107)">
<path d="M76.7871 48.8397C76.786 53.2238 73.3121 56.9433 67.2461 56.9433C54.4903 56.9401 40.7282 53.2121 40.7293 48.828C40.7304 44.4439 54.4944 40.7261 67.2502 40.7293C72.7438 40.7293 76.7882 44.4556 76.7871 48.8397Z" fill="url(#paint0_linear_1704_107)" fill-opacity="0.8"/>
</g>
<ellipse id="Ellipse 4502" cx="69.6733" cy="48.855" rx="7.7055" ry="7.70568" transform="rotate(0.0144559 69.6733 48.855)" fill="var(--fill-0, #0AE98A)"/>
<path id="Ellipse 4503" d="M69.6743 40.2765C74.3979 40.2765 78.2278 44.1056 78.228 48.8292C78.228 53.553 74.398 57.3829 69.6743 57.3829C64.9507 57.3828 61.1216 53.553 61.1216 48.8292C61.1218 44.1057 64.9508 40.2766 69.6743 40.2765Z" stroke="url(#paint1_linear_1704_107)" stroke-width="0.814586"/>
</g>
<defs>
<filter id="filter0_f_1704_107" x="-6.50063e-07" y="-1.05798e-06" width="117.516" height="97.6726" filterUnits="userSpaceOnUse" color-interpolation-filters="sRGB">
<feFlood flood-opacity="0" result="BackgroundImageFix"/>
<feBlend mode="normal" in="SourceGraphic" in2="BackgroundImageFix" result="shape"/>
<feGaussianBlur stdDeviation="20.3646" result="effect1_foregroundBlur_1704_107"/>
</filter>
<linearGradient id="paint0_linear_1704_107" x1="77.0732" y1="50.2847" x2="35.0462" y2="50.3009" gradientUnits="userSpaceOnUse">
<stop offset="0.23598" stop-color="#0AE98A"/>
<stop offset="1" stop-color="#044429"/>
</linearGradient>
<linearGradient id="paint1_linear_1704_107" x1="61.5203" y1="49.9668" x2="77.7915" y2="49.9668" gradientUnits="userSpaceOnUse">
<stop offset="0.481636" stop-color="#0AE98A" stop-opacity="0"/>
<stop offset="0.865083" stop-color="#0AE98A"/>
<stop offset="1" stop-color="#0AE98A"/>
</linearGradient>
</defs>
</svg>
