<svg preserveAspectRatio="none" width="100%" height="100%" overflow="visible" style="display: block;" viewBox="0 0 128.162 106.518" fill="none" xmlns="http://www.w3.org/2000/svg">
<g id="Group 2125">
<g id="Ellipse 4501" filter="url(#filter0_f_1704_186)">
<path d="M83.7441 53.2627C83.7429 58.0438 79.9542 62.1001 73.3383 62.1001C59.4263 62.0966 44.4168 58.031 44.418 53.25C44.4192 48.4689 59.4307 44.4145 73.3427 44.418C79.3344 44.418 83.7453 48.4817 83.7441 53.2627Z" fill="url(#paint0_linear_1704_186)" fill-opacity="0.8"/>
</g>
<ellipse id="Ellipse 4502" cx="75.9875" cy="53.2797" rx="8.40394" ry="8.40338" transform="rotate(0.014455 75.9875 53.2797)" fill="var(--fill-0, #B50AE9)"/>
<path id="Ellipse 4503" d="M75.9852 43.9257C81.1371 43.9257 85.3134 48.1022 85.3134 53.2538C85.3132 58.4052 81.137 62.581 75.9852 62.581C70.8336 62.5808 66.6573 58.4051 66.6571 53.2538C66.6571 48.1023 70.8335 43.9259 75.9852 43.9257Z" stroke="url(#paint1_linear_1704_186)" stroke-width="0.888359"/>
</g>
<defs>
<filter id="filter0_f_1704_186" x="1.86451e-06" y="-6.51926e-07" width="128.162" height="106.518" filterUnits="userSpaceOnUse" color-interpolation-filters="sRGB">
<feFlood flood-opacity="0" result="BackgroundImageFix"/>
<feBlend mode="normal" in="SourceGraphic" in2="BackgroundImageFix" result="shape"/>
<feGaussianBlur stdDeviation="22.209" result="effect1_foregroundBlur_1704_186"/>
</filter>
<linearGradient id="paint0_linear_1704_186" x1="84.0561" y1="54.8385" x2="38.2198" y2="54.8563" gradientUnits="userSpaceOnUse">
<stop offset="0.23598" stop-color="#B50AE9"/>
<stop offset="1" stop-color="#5F057A"/>
</linearGradient>
<linearGradient id="paint1_linear_1704_186" x1="67.0921" y1="54.4937" x2="84.8383" y2="54.4937" gradientUnits="userSpaceOnUse">
<stop offset="0.481636" stop-color="#B50AE9" stop-opacity="0"/>
<stop offset="0.865083" stop-color="#B50AE9"/>
<stop offset="1" stop-color="#B50AE9"/>
</linearGradient>
</defs>
</svg>
