<svg preserveAspectRatio="none" width="100%" height="100%" overflow="visible" style="display: block;" viewBox="0 0 128.16 106.518" fill="none" xmlns="http://www.w3.org/2000/svg">
<g id="Group 2120">
<g id="Ellipse 4489" filter="url(#filter0_f_1704_271)">
<path d="M83.7421 53.2628C83.7409 58.0438 79.9523 62.1001 73.3368 62.1001C59.4255 62.0966 44.4168 58.0311 44.418 53.25C44.4192 48.469 59.43 44.4145 73.3413 44.418C79.3325 44.418 83.7433 48.4817 83.7421 53.2628Z" fill="url(#paint0_linear_1704_271)" fill-opacity="0.8"/>
</g>
<ellipse id="Ellipse 4490" cx="75.9851" cy="53.2791" rx="8.4035" ry="8.40341" transform="rotate(0.0144572 75.9851 53.2791)" fill="var(--fill-0, #F50062)"/>
<path id="Ellipse 4491" d="M75.9849 43.9256C81.1364 43.9257 85.313 48.1022 85.313 53.2537C85.3129 58.4051 81.1363 62.5808 75.9849 62.5809C70.8333 62.5809 66.6569 58.4052 66.6567 53.2537C66.6567 48.1021 70.8332 43.9256 75.9849 43.9256Z" stroke="url(#paint1_linear_1704_271)" stroke-width="0.88836"/>
</g>
<defs>
<filter id="filter0_f_1704_271" x="1.15274e-06" y="1.546e-06" width="128.16" height="106.518" filterUnits="userSpaceOnUse" color-interpolation-filters="sRGB">
<feFlood flood-opacity="0" result="BackgroundImageFix"/>
<feBlend mode="normal" in="SourceGraphic" in2="BackgroundImageFix" result="shape"/>
<feGaussianBlur stdDeviation="22.209" result="effect1_foregroundBlur_1704_271"/>
</filter>
<linearGradient id="paint0_linear_1704_271" x1="84.0541" y1="54.8386" x2="38.2201" y2="54.8563" gradientUnits="userSpaceOnUse">
<stop offset="0.23598" stop-color="#F50062"/>
<stop offset="1" stop-color="#73002E"/>
</linearGradient>
<linearGradient id="paint1_linear_1704_271" x1="67.0918" y1="54.4936" x2="84.8369" y2="54.4936" gradientUnits="userSpaceOnUse">
<stop offset="0.481636" stop-color="#F50062" stop-opacity="0"/>
<stop offset="0.865083" stop-color="#F50062"/>
<stop offset="1" stop-color="#F50062"/>
</linearGradient>
</defs>
</svg>
