<svg width="92" height="81" overflow="visible" style="display: block;" viewBox="0 0 92 81" fill="none" xmlns="http://www.w3.org/2000/svg">
<path id="Biodiversidad" d="M12.6644 42.528C13.6956 41.8984 14.7711 41.3272 15.979 41.1222C16.804 40.9904 17.7468 41.0197 18.5423 41.2979C18.5423 41.2979 17.0397 43.7142 16.4505 45.0468C16.1411 45.7644 15.3603 46.0719 14.8594 46.6284C14.3586 47.1848 14.2996 47.8877 14.8152 48.4442C15.434 49.1032 16.4799 49.1178 17.2754 48.8103C18.1151 48.4735 18.5276 47.6974 18.5423 46.8041C18.7044 46.4673 18.8665 46.1305 19.0433 45.8083C19.7356 44.4757 20.649 43.0259 22.1958 42.6012C23.1092 42.3523 24.052 42.4695 24.9506 42.6891C26.6742 43.0992 28.8398 43.5824 30.5781 44.1389C29.0755 42.2644 27.5434 40.39 26.026 38.5302C24.8917 37.139 23.4333 35.8064 21.7981 34.9571C21.6213 34.8399 21.1941 34.6203 20.6932 34.342C20.4133 34.8692 19.4705 36.4215 17.9826 36.7876C17.5406 36.8901 16.804 36.7876 16.2884 36.8315C15.6697 36.8608 15.0657 36.934 14.4617 37.0512C12.3109 37.4466 10.4399 38.5595 8.186 38.5595C6.91908 38.5595 5.68162 38.3691 4.50309 37.9152C3.50134 37.5344 2.01347 36.8022 1.21796 37.9884C0.717084 38.7499 0.879109 39.936 1.79247 40.2582C2.49959 40.5072 3.6634 40.3021 4.38525 40.2729C5.63744 40.2143 8.15655 41.0343 8.15655 41.0343C10.1453 39.98 12.7676 39.0135 12.7676 39.0135C11.0734 40.0678 7.55255 42.8502 7.55255 42.8502C7.37577 42.9673 7.19901 43.0991 7.02223 43.2163C6.21199 43.7728 3.64869 45.3983 3.11835 45.5886C2.63221 45.7497 2.10187 45.8815 1.73358 46.2476C1.21797 46.7748 1.4389 47.4924 1.96924 47.9024C3.35402 48.9568 5.63746 48.4735 6.10888 46.7016C6.18253 46.4233 8.56904 44.7393 9.45294 44.3C10.5578 43.7435 11.6185 43.1724 12.6792 42.528H12.6644ZM91.9943 30.271C91.8912 29.0409 91.3461 27.6351 90.2413 26.9761C88.3261 25.8192 86.1459 26.4489 84.6285 27.9133C77.4542 34.8839 75.7159 48.2831 75.7159 48.2831C75.7453 48.0342 76.3199 36.2018 83.2437 28.3819L82.5808 27.7815C83.1406 23.564 78.7948 24.6038 78.7948 24.6038C78.3086 24.223 77.8225 23.8569 77.3216 23.4908C76.9828 23.2419 75.3181 22.085 75.3181 22.085C75.3181 22.085 74.228 21.7189 73.02 20.9135C72.2834 20.4156 69.8085 18.38 69.8085 18.38C69.8085 18.38 67.7019 17.0035 66.6412 16.3445C65.551 15.9345 63.2382 14.9826 63.2382 14.9826L59.4079 12.9325L54.1929 11.966C54.1929 11.966 49.9944 10.6626 48.315 10.3698C47.1954 10.2965 43.3063 8.93466 43.3063 8.93466L37.1779 7.76313H30.8875L25.5252 5.1565C23.6543 4.73182 22.7262 2.91595 21.474 1.67121C19.8682 0.0750125 17.4375 -0.408231 15.3162 0.353258C13.4747 1.01224 12.6202 2.68165 11.5006 4.11676C11.0587 4.68788 10.3663 4.98077 9.68865 5.1565C7.36105 5.80083 4.45892 4.81968 2.45541 6.43052C1.49786 7.20665 0.967495 8.33424 0.407693 9.40325C-1.10967 12.2881 1.93981 14.4701 4.1201 15.7295C5.57853 16.5788 7.09588 17.1499 8.62797 17.8236C8.62797 17.8236 17.4964 21.3381 22.5493 24.7502C22.5493 24.7502 12.9296 21.0892 7.72932 19.0097C7.72932 19.0097 2.64691 17.355 1.37999 15.2462C1.40945 15.2902 1.35054 15.5245 1.35054 15.5684C1.35054 15.8466 1.42419 16.1249 1.52731 16.3738C1.88087 17.2964 2.69111 17.8968 3.50135 18.3947C5.82895 19.7859 8.28912 20.8402 10.4399 22.4804C10.8819 22.8172 11.206 23.2711 11.427 23.769C11.6774 24.3548 11.9868 25.0724 12.031 25.1602C12.2961 25.7606 12.6203 26.3464 12.9591 26.9175C14.1965 28.9823 15.9938 30.3003 18.0415 31.5743C21.194 33.5366 24.8328 34.8253 27.1604 38.2666C27.1604 38.2666 30.9611 43.0113 32.7437 45.2079C33.6865 46.2623 34.6588 47.2434 35.528 48.0049C35.528 48.0049 33.4655 51.6366 31.1527 62.2243C31.1085 62.4146 31.0495 62.605 31.0053 62.7954C30.7844 63.6154 30.5339 64.4209 30.2688 65.2263C29.9741 66.1196 29.5322 66.7639 28.5451 66.9689C27.4697 67.1886 26.1292 67.0128 25.2895 66.3392C24.2288 65.4899 22.9766 62.8686 21.2824 64.0548C20.7668 64.4209 20.5459 65.1823 20.7668 65.7827C21.032 66.4857 21.857 66.676 22.4757 66.9396C23.1386 67.2179 24.2435 67.9794 24.3614 68.9751C24.3908 69.2241 22.9029 69.8684 22.7556 69.9416C20.5901 71.0399 18.1151 71.2596 15.7139 71.1425C13.9756 71.0546 12.2667 70.8203 10.5431 70.6738C9.42347 70.586 7.83247 70.6153 7.67043 72.065C7.55257 73.1194 8.56904 73.6905 9.45294 73.793C10.4842 73.9248 11.6627 73.7198 12.4435 72.973C12.4729 72.9583 14.8889 73.6612 19.7356 73.5148C21.1793 73.4416 23.0502 73.2366 24.4497 72.6362C24.6413 72.5483 24.8475 72.4604 25.0243 72.3579C25.0243 72.3579 24.1109 73.9248 23.4186 75.0378C23.4186 75.0378 22.2105 76.4729 20.7226 77.3955C20.7226 77.3955 17.3344 78.318 18.1446 79.9874C18.1446 79.9874 18.616 81.0272 20.1334 80.9979C20.1334 80.9979 21.5034 81.115 22.3579 79.6067C22.9913 79.1381 23.6101 78.6109 24.1846 78.0691C25.3042 77.0147 26.2176 75.8871 27.4698 74.9645C29.9741 73.1194 33.2593 73.588 35.8373 71.8161C37.2368 70.8496 38.2975 69.6488 38.8868 68.0379C39.0194 67.6572 39.1225 67.2764 39.2256 66.881C39.8738 64.2744 40.4778 61.6678 40.905 59.0172C41.4943 55.4294 42.1572 51.7831 41.8331 48.1513C41.0965 39.8335 36.8538 34.6935 36.8538 34.4885C36.8538 34.4885 41.7447 38.2666 43.0264 48.6346L45.958 49.8354C45.958 49.8354 48.4181 50.0843 49.5672 50.3626C50.7752 50.6555 52.5724 51.6366 54.0014 51.7831C55.5924 51.9441 58.0379 51.4316 58.0379 51.4316C58.0379 51.4316 61.2052 50.4065 62.6784 49.9526C64.3136 49.4547 65.6983 49.3668 67.3041 48.371C67.9965 34.9131 79.1631 32.2479 79.1631 32.2479C67.9965 37.183 68.8067 49.3961 68.8067 49.3961C68.8657 50.3333 68.9098 51.2852 69.1897 52.1931C69.6317 53.5989 70.5303 55.6052 71.974 56.2349C74.6552 57.4064 77.793 55.942 79.7965 54.1407C80.4005 53.5989 80.9751 52.9839 81.4907 52.3542C82.4924 51.1241 83.2437 49.7768 83.9951 48.3857C83.9951 48.3857 88.5029 39.9946 89.5783 35.6307C89.5783 35.6307 86.5878 49.8354 80.2532 55.3855C76.8207 58.6365 73.5356 58.4022 72.4602 58.2118C71.1785 58.6365 69.6612 59.1344 70.2357 60.4962C70.5451 61.2138 71.2227 61.4481 71.9593 61.3163C72.6959 61.1845 73.2262 60.6427 73.7418 60.1594C74.3605 59.5883 75.0087 59.2076 75.8779 59.1197C75.9663 59.1197 76.0547 60.4377 76.0547 60.4962C76.0547 61.6385 75.819 62.8539 75.3476 63.8937C75.1266 64.3916 74.8467 64.8602 74.5226 65.2848C74.2279 65.6656 73.8155 65.9585 73.6092 66.4124C73.1378 67.4375 74.0217 68.1844 74.9793 68.3454C75.3034 68.3894 75.598 68.404 75.8927 68.3454C76.5261 66.5589 76.4966 64.6844 76.6587 62.7807C76.7471 61.6531 76.8502 60.5255 77.0564 59.4272C77.1301 59.0465 77.2627 58.6511 77.3069 58.2704C77.3069 58.4461 77.2774 58.6218 77.2627 58.7976C77.1743 59.7348 77.1006 60.672 77.0564 61.6092C76.9975 62.81 77.027 64.0255 76.9533 65.2409C76.8944 66.0756 76.8502 66.8957 76.7618 67.7304C76.7618 67.7304 77.0123 69.6341 76.7618 70.586C76.5408 71.4646 76.5703 72.519 77.41 73.0608C78.2497 73.6026 79.3104 73.5294 80.0322 72.8412C80.8867 72.0211 80.6804 70.7178 80.3121 69.7073C80.3121 69.7073 79.5019 67.5547 80.0322 65.4752C80.0322 65.4752 81.255 59.2515 80.6362 57.011C80.6362 57.011 81.4465 58.6365 81.3433 60.8623C81.3433 60.8623 82.8165 61.8874 84.3928 63.7033C84.658 63.9962 84.6432 64.4355 84.8495 64.7723C85.4535 65.7974 87.1329 65.8999 87.7074 64.8016C87.7074 64.8016 88.3409 63.4104 86.6173 62.4C86.6173 62.4 82.5955 59.4272 82.9638 55.2683C84.216 53.5989 85.4535 51.9002 86.5289 50.1283C88.0757 47.5656 89.3721 44.7246 90.0939 41.8251C90.6243 39.6871 90.9337 37.4905 91.1841 35.3085C91.2283 34.8985 91.2725 34.4885 91.2578 34.0784C91.685 32.8923 92.0974 31.6036 91.9796 30.3296L91.9943 30.271ZM6.58025 10.3844C6.58025 10.3844 6.50662 10.3844 6.46242 10.3844C6.15306 10.3844 5.78477 10.3258 5.59326 10.3405C5.59326 10.3405 5.59325 10.3405 5.57851 10.3405C5.44593 10.3405 5.31335 10.3698 5.16603 10.3991C5.03344 10.4283 4.90088 10.4576 4.76829 10.5016C4.70936 10.5162 4.47366 10.5601 4.44419 10.6187C4.48839 10.5455 4.54732 10.4869 4.59152 10.4137C4.87142 10.0915 5.22495 9.82792 5.62271 9.69613C5.90261 9.59362 6.21198 9.5204 6.50661 9.53504C6.55081 9.53504 6.595 9.53505 6.63919 9.56434C7.14007 9.72542 7.14007 10.3112 6.595 10.3698L6.58025 10.3844ZM23.9931 16.0956C23.7426 17.0035 23.1828 17.765 22.4315 18.3068C21.2088 19.2001 19.4999 19.5369 17.7911 19.0683C15.0362 18.3068 13.3274 15.7588 14.005 13.3571C14.226 12.5664 14.668 11.9074 15.272 11.3802C16.4947 10.3112 18.3656 9.87186 20.207 10.3844C22.9618 11.1459 24.6707 13.694 23.9931 16.0956ZM19.3379 13.4889C17.5701 13.0057 15.7875 13.8404 15.7875 13.8404C15.7875 13.8404 16.8777 15.4805 18.6455 15.9638C20.4133 16.447 22.1958 15.6123 22.1958 15.6123C22.1958 15.6123 21.1057 13.9722 19.3379 13.4889Z" fill="var(--fill-0, #F7FBF8)"/>
</svg>
