<svg width="79.9316" height="80.3662" overflow="visible" style="display: block;" viewBox="0 0 79.9316 80.3662" fill="none" xmlns="http://www.w3.org/2000/svg">
<g id="Ingresos">
<path id="Vector" d="M57.8494 16.0013L52.3854 13.3012L38.5226 11.0703L32.4654 12.4151C28.3336 13.3325 25.4923 12.7279 22.5678 15.7928C21.0379 17.3878 18.1758 20.6821 17.1039 22.0477C17.1039 22.0477 12.7847 28.2401 11.8168 31.107C10.9426 33.682 11.2132 40.5311 10.5679 43.6586C10.3286 44.8262 10.4014 46.025 10.7761 47.1509L12.1394 51.2375C13.6694 55.8349 16.6459 59.8172 20.6216 62.5798L23.5982 64.6544L34.2763 69.2309L47.4106 68.3031L52.604 65.6134C57.2665 63.1949 61.1902 59.5357 63.917 55.0426C65.4052 52.6032 66.8207 50.0908 67.4035 48.5687C68.08 46.7861 68.6732 44.0443 69.0999 41.6361C69.6619 38.5295 69.6723 35.3499 69.1416 32.2329L68.4859 28.3756L65.6863 23.4238C63.8753 20.2234 61.1486 17.638 57.8494 16.0117V16.0013Z" fill="var(--fill-0, #F7FBF8)"/>
<path id="Vector_2" d="M37.8225 33.3628H42.2874C42.6308 33.3628 42.9639 33.4149 43.2761 33.5505C44.0879 33.9049 44.5875 34.6659 44.6499 35.4895C44.6499 35.5833 44.7227 35.6563 44.8164 35.6563H46.159H47.6993H49.0419C49.1355 35.6563 49.2188 35.5729 49.2188 35.479C49.198 34.5825 49.0002 33.7068 48.636 32.8937C48.3238 32.1952 47.7513 30.9338 47.6472 30.7149C47.6368 30.694 47.6265 30.6732 47.6056 30.6627C47.4079 30.5064 46.1902 29.5264 45.3784 29.2137C44.6395 28.9322 43.3698 28.8175 42.5163 28.8071C42.4331 28.8071 42.3706 28.7446 42.3498 28.6716L42.0064 26.8785C42.0064 26.8785 42.0064 26.8472 42.0064 26.8368L42.1 25.0854C42.1 24.9916 42.0272 24.9082 41.9335 24.9082H40.7158H39.1131H38.3013C38.218 24.9082 38.1452 24.9707 38.1348 25.0541L37.8329 27.16V27.1808V28.6507C37.8329 28.7446 37.7601 28.8175 37.6664 28.8175C37.1565 28.828 36.6569 28.9009 36.1782 29.0156C35.6057 29.1616 34.565 29.6515 34.4713 29.6932C34.4713 29.6932 34.4713 29.6932 34.4609 29.6932C34.3777 29.7454 33.4202 30.3813 33.0039 30.7983C32.5876 31.2153 31.9735 32.1327 31.9111 32.2161C31.9111 32.2161 31.9111 32.2161 31.9111 32.2265C31.8694 32.3203 31.4011 33.2585 31.2658 33.7589C31.0785 34.3949 30.7662 35.7293 30.7246 35.9169C30.7246 35.9378 30.7246 35.9482 30.7246 35.9586C30.735 36.1358 30.8391 37.2617 30.9952 37.783C31.1305 38.2417 31.3595 39.0235 31.4011 39.159C31.4011 39.1799 31.4011 39.1903 31.4219 39.2007C31.526 39.3467 32.2129 40.2954 32.6084 40.6915C33.0039 41.0876 34.3776 41.5568 34.4713 41.5985C34.4713 41.5985 34.4713 41.5985 34.4817 41.5985C34.565 41.6402 35.5329 42.1093 36.0637 42.2552C36.6361 42.4116 37.7913 42.5471 37.7913 42.5471L39.7792 42.7139C39.7792 42.7139 39.8104 42.7139 39.8208 42.7139L41.1634 42.495C41.1634 42.495 41.1842 42.495 41.1946 42.495H42.4123C42.7661 42.495 43.3697 42.7244 43.4842 42.7661C43.4946 42.7661 43.505 42.7661 43.5155 42.7869C43.6091 42.8599 44.1191 43.2352 44.3064 43.5062C44.3064 43.5062 44.3064 43.5063 44.3064 43.5167C44.7436 44.1734 44.8164 45.0179 44.4834 45.7268C44.4626 45.7685 44.4521 45.7997 44.4313 45.831C44.2648 46.1438 43.7444 46.6233 43.7444 46.6233C43.7444 46.6233 43.1824 47.3009 42.6724 47.3009L41.5068 47.3739C41.5068 47.3739 40.8928 47.3739 40.8615 47.3739L39.6126 47.4886H39.5814L37.8434 47.0507C37.8434 47.0507 36.6465 46.8005 36.2302 46.3835C35.8555 46.0082 35.6057 45.4974 35.5641 44.9345C35.5641 44.8406 35.4913 44.7676 35.3976 44.7676H33.8573H32.0151H31.1721C31.0785 44.7676 30.9952 44.8511 30.9952 44.9449C31.016 45.6434 31.1409 46.321 31.3595 46.9673C31.526 47.4469 31.6613 48.2079 31.6925 48.4268C31.6925 48.4685 31.7133 48.4998 31.7445 48.5206C31.9423 48.6874 32.7124 49.3338 32.9934 49.6048C33.4202 50.0322 34.3776 50.6577 34.4817 50.7307C34.4817 50.7307 34.4921 50.7307 34.5026 50.7411C34.617 50.7933 35.6578 51.2832 36.2302 51.4187C36.7089 51.5334 37.1981 51.596 37.6976 51.6064C37.7809 51.6064 37.8538 51.669 37.8642 51.7524L38.1348 53.4933C38.1348 53.4933 38.1348 53.5037 38.1348 53.5142L38.166 55.0466C38.166 55.13 38.2284 55.203 38.3117 55.2134L39.7792 55.4532C39.7792 55.4532 39.8104 55.4532 39.8208 55.4532L42.2457 55.203C42.329 55.203 42.4019 55.1196 42.4019 55.0362V51.7732C42.4019 51.6794 42.4747 51.6064 42.558 51.6064C43.0888 51.5751 43.8901 51.4396 43.9942 51.4187C43.9942 51.4187 44.0046 51.4187 44.015 51.4187C44.1295 51.377 45.2223 51.033 45.7323 50.7411C46.2943 50.4284 47.5328 49.6569 47.7097 49.5527C47.7201 49.5527 47.7305 49.5318 47.7409 49.5214C47.8554 49.3755 48.5319 48.4998 48.7817 48.0724C49.2084 47.3218 49.1564 45.7997 49.1564 45.7997C49.1564 45.7997 49.25 43.9128 49.0106 43.0058C48.8545 42.4325 48.3238 41.3379 48.3238 41.3379C48.3238 41.3379 47.6577 39.722 46.9395 39.1799C46.3671 38.7525 45.316 38.5231 44.6395 38.2938C43.9318 38.0436 43.172 37.9185 42.4019 37.9185H37.8434C37.1044 37.9185 36.4487 37.564 36.0324 37.0219C35.741 36.6362 35.5641 36.1567 35.5641 35.6354C35.5641 35.0308 35.8035 34.4783 36.1782 34.0717C36.5945 33.6234 37.1877 33.3524 37.8434 33.3524L37.8225 33.3628Z" fill="var(--fill-0, #146A56)"/>
<path id="Union" d="M40.7041 74.8193L41.1826 76.4043L41.4854 78.4785L41.5264 80.293L38.373 80.3662L38.5088 78.8545L38.5811 76.4668L38.7793 74.9971L39.6533 74.6426L40.7041 74.8193ZM15.3105 64.292L15.9355 65.168L15.0293 66.7422L13.7705 68.4209L12.5215 69.7344L10.2422 67.5557L11.3975 66.5859L13.2705 64.8135L14.4473 63.917L15.3105 64.292ZM66.9414 65.3252L67.9824 65.9502L69.3145 67.2227L67.1387 69.5049L66.1611 68.3477L64.7041 66.7744L63.8086 65.5957L64.1836 64.7305L65.0576 64.0947L66.9414 65.3252ZM79.9316 41.6162L78.4219 41.4902L76.3301 41.418L74.873 41.2197L74.5195 40.334L74.6963 39.2705L76.8926 38.8008L78.0166 38.5088L79.8584 38.457L79.9316 41.6162ZM1.49902 38.5703L3.59082 38.6436L5.05859 38.8418L5.40137 39.7275L5.22461 40.791L3.02832 41.2598L1.9043 41.5518L0.0732422 41.6045L0 38.4453L1.49902 38.5703ZM69.373 12.8105L68.2178 13.7803L66.6562 15.25L65.4805 16.1465L64.6064 15.7715L63.9922 14.917L64.585 13.6348L65.8447 11.9453L67.0938 10.6318L69.373 12.8105ZM13.1572 11.125L15.2178 13.293L16.123 14.4717L15.748 15.3467L14.8633 15.9727L12.9795 14.7422L11.3145 13.502L10.0137 12.251L12.1885 9.96777L13.1572 11.125ZM41.4209 1.50098L41.3379 3.60742L41.1504 5.06641L40.2656 5.4209L39.2041 5.24414L38.7363 3.04395L38.4443 1.91797L38.3926 0.0732422L41.5459 0L41.4209 1.50098Z" fill="var(--fill-0, #F7FBF8)"/>
</g>
</svg>
