<svg width="89" height="80" overflow="visible" style="display: block;" viewBox="0 0 89 80" fill="none" xmlns="http://www.w3.org/2000/svg">
<path id="Salud" d="M81.0808 8.08458C81.0004 7.99226 80.92 7.91311 80.8128 7.86035C79.8346 7.33281 75.8952 3.19163 73.0143 2.11017C70.1334 1.02871 66.6495 0.909985 63.6212 0.923173C60.4991 0.94955 54.697 2.37394 53.9735 2.55858C53.9199 2.57177 53.8797 2.58493 53.8261 2.6113C53.1561 2.91464 47.9035 5.3018 45.0628 7.38559C44.7144 7.63617 44.232 7.62298 43.897 7.34602C41.1233 5.02484 38.4166 3.24438 35.7903 2.01784C33.164 0.79131 28.2597 0.105508 27.4557 0C27.3753 0 27.3083 0 27.2279 0C26.2766 0.105508 19.4562 0.89682 16.2403 2.30799C13.0244 3.71917 10.3713 5.55237 7.97278 7.95268C5.69485 10.2739 3.22933 16.0373 3.22933 16.0373C3.22933 16.0373 -0.0133581 23.4097 4.14135e-05 27.4585C4.14135e-05 30.0303 0.375226 32.5756 1.0854 35.0023C1.206 35.4244 1.62139 35.7014 2.06358 35.6486L10.1703 34.8968C10.1703 34.8968 10.2909 34.8968 10.3445 34.8968L18.3842 35.6486C18.7862 35.6882 19.1748 35.464 19.3356 35.0815L22.7659 26.8914C22.7659 26.8914 22.7927 26.8255 22.8195 26.7991L27.0538 19.3476C27.4155 18.7145 28.3535 18.7277 28.6885 19.374L32.6146 26.7991C32.6146 26.7991 32.6548 26.8782 32.6682 26.9178L36.2191 37.0202C36.2191 37.0202 36.2458 37.0993 36.2458 37.1257L37.2106 41.6626C37.3982 42.5726 38.6846 42.6517 39.0062 41.7813L40.6945 37.007L43.4682 29.1862C43.7362 28.4345 44.7948 28.3553 45.17 29.0543L47.8767 34.066C47.8767 34.066 47.9303 34.1583 47.9705 34.1979L50.4896 37.3631C50.9318 37.917 51.8161 37.7983 52.0841 37.1389L54.0137 32.4438C54.0137 32.4438 54.0405 32.3647 54.0539 32.3119L55.836 25.1373C55.8628 25.0582 55.8896 24.9791 55.9298 24.9L59.2663 19.0838C59.6281 18.4508 60.5527 18.4639 60.901 19.097L63.1522 23.1854C63.1522 23.1854 63.2192 23.3173 63.2326 23.3832L65.0415 30.0435L65.9259 33.6835C66.0197 34.0923 66.3949 34.3825 66.8371 34.3825H68.8738C69.383 34.3825 69.8118 34.7913 69.8118 35.3057V36.6641C69.8118 37.1653 69.3964 37.5873 68.8738 37.5873H64.5323C64.1035 37.5873 63.7284 37.2972 63.6212 36.8883L62.308 31.6393C62.308 31.6393 62.2678 31.5206 62.241 31.4547L60.6867 28.2894C60.3517 27.6168 59.3735 27.5904 59.0251 28.263L57.5914 30.9535C57.5914 30.9535 57.5512 31.0458 57.5378 31.0854L54.9784 38.616C54.9784 38.616 54.9784 38.6556 54.965 38.6688L52.7139 44.142C52.4459 44.7751 51.5884 44.9201 51.1462 44.3926L48.0375 40.7789C48.0375 40.7789 47.9437 40.647 47.9035 40.5679L46.0141 36.519C45.6657 35.7673 44.567 35.8201 44.2856 36.5982L41.3511 44.8542L38.8454 51.8969C38.5506 52.7146 37.3848 52.7146 37.09 51.8969L35.5759 47.8084L33.2578 41.5702C33.2578 41.5702 33.2443 41.5175 33.2309 41.4911L31.2344 33.9473C31.2344 33.9473 31.2076 33.8418 31.1808 33.789L28.2463 27.5772C27.9247 26.9046 26.96 26.865 26.5982 27.5113L24.6016 30.9666C24.6016 30.9666 24.5748 31.0194 24.5614 31.059L21.3857 38.2863C21.2383 38.6292 20.8766 38.8534 20.488 38.8402L10.5589 38.4578C10.5589 38.4578 10.5053 38.4578 10.4785 38.4578L4.01991 38.7875C3.32313 38.827 2.90775 39.5656 3.25614 40.1591C4.87748 42.9023 7.73159 46.3973 8.07998 46.8193C8.10677 46.8457 8.13357 46.872 8.16037 46.8984L15.1549 53.5322L22.6989 60.5221L28.9163 66.6021L36.1119 73.4337C36.1119 73.4337 36.1521 73.4601 36.1655 73.4865L43.9372 79.7906C44.2722 80.0676 44.7546 80.0675 45.103 79.8038L50.8782 75.3724C50.8782 75.3724 50.9184 75.3461 50.9318 75.3329L58.4757 68.6067C58.4757 68.6067 58.5025 68.5804 58.5159 68.5672L64.8673 62.0916L72.9071 53.7828C72.9071 53.7828 72.9473 53.7433 72.9606 53.7301L80.987 46.7929C80.987 46.7929 81.0272 46.7533 81.054 46.7402C83.4123 44.353 86.4406 38.8402 86.8292 38.128C86.856 38.0753 86.8828 38.0225 86.8962 37.9698C87.1374 37.1653 89.0133 30.848 88.9999 27.3926C88.9999 23.2909 88.0887 19.2816 86.3736 15.6284C85.181 13.083 81.791 8.8627 81.121 8.04501L81.0808 8.08458Z" fill="var(--fill-0, #F7FBF8)"/>
</svg>
