<svg width="66.664" height="80.0004" overflow="visible" style="display: block;" viewBox="0 0 66.664 80.0004" fill="none" xmlns="http://www.w3.org/2000/svg">
<g id="CO2 Captura">
<path id="Vector" d="M35.0477 73.807C35.0477 73.807 36.7794 63.1103 37.1346 63.0102C38.944 62.3876 40.3094 60.8976 40.7978 59.0407C41.1864 58.1178 43.4731 52.3914 43.4731 52.3914L42.9403 46.9541L40.2983 48.0994L40.7645 52.1023C40.7645 52.1023 38.6665 57.762 38.6221 57.8509L36.846 58.696L35.7692 57.3728L35.1587 53.3476L32.4945 54.0037C32.4279 55.716 33.5047 61.3312 33.4492 63.0769C33.2494 68.6254 30.9293 68.6699 30.9293 68.6699C30.5075 67.8471 27.1884 64.5002 27.1884 64.5002L26.3892 60.4306L24.0469 56.2386L21.8379 57.951L23.4031 60.3083L24.5243 66.4127L28.3429 69.4705L28.798 73.3622C29.6195 75.2302 28.9423 78.099 29.6417 80.0004H34.5704L35.0588 73.7959L35.0477 73.807Z" fill="var(--fill-0, #F7FBF8)"/>
<path id="Vector_2" d="M66.6307 29.0809C66.6307 28.9585 66.6085 28.8362 66.5752 28.7139L65.8425 26.3122C65.7981 26.1565 65.7204 26.0008 65.6094 25.8785C65.1876 25.3782 64.0109 24.0883 63.034 23.8993C61.9906 23.6992 60.6474 23.4768 59.3708 23.3989C56.9176 23.2433 59.5706 20.3856 57.517 17.9394C57.2617 17.6281 56.851 17.4724 56.4513 17.5058C53.3543 17.717 52.6993 16.6941 53.5319 15.5043C54.2978 14.4258 57.8722 8.33243 53.2988 4.91883C49.7354 2.26134 46.05 1.02711 43.8299 2.39477C41.3766 3.90698 38.2129 3.51781 36.2037 1.44964L36.1371 1.38293C35.1825 0.404436 33.8504 -0.0959277 32.485 0.0152643L25.2585 0.626821C24.2816 0.704655 23.3269 1.00487 22.4833 1.50524C20.8737 2.45037 18.0763 4.08489 16.0338 5.34136C15.0902 5.91956 14.2466 7.54296 13.8692 8.35467C13.7249 8.666 13.4584 8.88839 13.1476 8.99958L8.76286 10.4784C8.51865 10.5563 8.30773 10.7119 8.15232 10.9232L4.72222 15.5933C4.04507 16.5162 3.73425 17.6392 3.82306 18.7734C3.94516 20.1633 4.13387 22.0535 4.37809 23.2322C4.5779 24.1884 5.04413 25.734 5.33275 26.6902C5.48816 27.1906 5.31055 27.7243 4.89982 28.0468L2.99051 29.5145C1.86934 30.3818 1.10339 31.6272 0.859178 33.0171L0.270844 36.3195C0.270844 36.3195 0.270842 36.3862 0.259741 36.4195L0.0266278 38.9102C-0.184285 41.1341 0.87028 43.2912 2.7685 44.481L4.5557 45.604C4.84432 45.7819 5.04413 46.071 5.11074 46.4046L5.66577 49.1065C5.99879 50.7411 7.03115 52.1532 8.47424 52.976L9.4178 53.5209C9.59541 53.6209 9.79523 53.6765 10.0061 53.6877L13.7582 53.7766C13.9802 53.7766 14.1911 53.7321 14.3909 53.6209L16.0116 52.7203C17.4769 51.9197 18.3649 53.4208 20.2965 55.2666C20.7405 55.6891 21.4176 55.7336 21.9061 55.3667L23.1382 54.4438C23.3158 54.3103 23.5268 54.2214 23.7599 54.1991L25.3917 54.0324C25.6692 53.999 25.9467 54.0657 26.1798 54.2103L27.1567 54.8218C27.4786 55.022 27.8782 55.0664 28.2334 54.933L29.621 54.4438C29.8985 54.3437 30.1428 54.1435 30.2871 53.8878L30.7755 53.0205C30.9531 52.698 31.2639 52.4757 31.6302 52.4089L32.2852 52.2866C32.2852 52.2866 32.3407 52.2755 32.374 52.2644L35.0382 51.5528C35.1603 51.5194 35.2824 51.4638 35.3934 51.3971L37.2583 50.1851C37.5913 49.9627 37.8022 49.5958 37.8244 49.1955L37.9021 47.561C37.9465 46.727 38.768 46.1711 39.5561 46.4379C39.8447 46.538 40.1556 46.5269 40.4331 46.4157L42.4201 45.604C42.6643 45.5039 42.9307 45.4817 43.186 45.5484L45.5172 46.1266C45.828 46.2044 46.1055 46.4046 46.272 46.6826L46.7716 47.4831C48.3812 50.085 51.3783 51.4861 54.3977 51.0524L55.1748 50.9412C55.3302 50.919 55.4745 50.8745 55.6077 50.7967C56.2404 50.4408 58.2164 49.3067 59.2931 48.5172C60.2367 47.8278 60.6474 45.6151 60.7584 44.9368C60.7806 44.8034 60.7806 44.67 60.7584 44.5366L60.2811 41.7456C60.2478 41.5232 60.27 41.3009 60.3477 41.0896L61.6354 37.7094C61.7242 37.487 61.8685 37.2868 62.0572 37.1534L63.7112 35.9414C65.5761 34.5737 66.6751 32.3944 66.664 30.0816V29.1253L66.6307 29.0809Z" fill="var(--fill-0, #F7FBF8)"/>
<g id="Group">
<path id="Vector_3" d="M15.8359 23.768C15.8359 23.768 16.0912 21.4552 16.5575 20.4767C16.9904 19.576 17.5898 18.7977 18.3336 18.1639C18.933 17.6524 20.4094 16.9408 20.4094 16.9408C20.4094 16.9408 22.1966 16.4404 23.1957 16.4404C23.9949 16.4404 25.327 16.7295 25.327 16.7295C25.327 16.7295 26.87 17.3411 27.3917 17.7303L26.5814 20.2321C26.1485 19.9319 25.4935 19.5649 24.7165 19.3314C24.2502 19.1869 23.1957 19.0979 23.1957 19.0979C23.1957 19.0979 20.9755 19.5316 20.2096 20.2543C19.3326 21.0994 18.7998 23.7569 18.7998 23.7569C18.7998 23.7569 19.2549 26.2809 20.032 27.1037C20.809 27.9266 23.1846 28.4158 23.1846 28.4158C23.1846 28.4158 24.4501 28.2935 24.9829 28.1156C25.7155 27.871 26.3039 27.5374 26.6924 27.2705L27.5027 29.7501C27.0476 30.0837 26.4371 30.4395 25.6489 30.7064C24.9607 30.9287 23.1957 31.0844 23.1957 31.0844C23.1957 31.0844 21.1199 30.8954 20.2429 30.5507C19.2327 30.1504 17.6786 28.7827 17.6786 28.7827C17.6786 28.7827 16.6685 27.4373 16.3577 26.6256C16.0246 25.7472 15.8359 23.7569 15.8359 23.7569V23.768Z" fill="var(--fill-0, #146A56)"/>
<path id="Vector_4" d="M28.6869 23.768C28.6869 22.6005 29.3751 20.5323 29.3751 20.5323C29.3751 20.5323 30.1744 19.1313 30.7294 18.5642C31.4398 17.8414 33.3048 16.9074 33.3048 16.9074C33.3048 16.9074 35.0476 16.4404 36.0244 16.4404C36.8681 16.4404 38.3889 16.7851 38.3889 16.7851C38.3889 16.7851 40.1095 17.5079 40.8088 18.0861C41.5637 18.7087 42.6071 20.3766 42.6071 20.3766C42.6071 20.3766 43.362 22.5338 43.362 23.768C43.362 24.8577 42.7736 26.7924 42.7736 26.7924C42.7736 26.7924 41.8412 28.5159 41.1307 29.1719C40.4203 29.828 38.6331 30.673 38.6331 30.673C38.6331 30.673 36.9569 31.0955 36.0133 31.0955C34.6812 31.0955 32.4389 30.2616 32.4389 30.2616C32.4389 30.2616 30.7072 29.0941 30.0967 28.2713C29.6415 27.6597 29.0421 26.2031 29.0421 26.2031C29.0421 26.2031 28.6758 24.6353 28.6758 23.768H28.6869ZM31.6508 23.768C31.6508 26.47 33.4824 28.4269 36.0244 28.4269C38.5665 28.4269 40.3981 26.47 40.3981 23.768C40.3981 21.066 38.5665 19.109 36.0244 19.109C33.4824 19.109 31.6508 21.1105 31.6508 23.768Z" fill="var(--fill-0, #146A56)"/>
<path id="Vector_5" d="M44.0333 37.8549C44.0333 37.4101 44.3108 36.5984 44.3108 36.5984C44.3108 36.5984 44.666 35.9424 44.9103 35.6311C45.2211 35.2308 45.9648 34.4969 45.9648 34.4969C45.9648 34.4969 46.5532 33.9632 46.8307 33.6963C47.3413 33.2404 48.1295 32.3731 48.1295 32.3731C48.1295 32.3731 48.5624 31.6615 48.5624 31.3057C48.5624 30.8832 48.1295 30.3161 48.1295 30.3161C48.1295 30.3161 47.6077 30.0492 47.2525 30.0492C46.8529 30.0492 46.32 30.3717 46.32 30.3717C46.32 30.3717 45.8982 30.9054 45.7983 31.2501L44.7548 31.1055L44 30.7275C44.0888 30.3606 44.5439 29.5044 44.5439 29.5044C44.5439 29.5044 44.9325 29.0151 45.21 28.8039C45.4653 28.6037 46.1202 28.3257 46.1202 28.3257C46.1202 28.3257 46.8751 28.1367 47.3413 28.1367C47.6743 28.1367 48.2738 28.2368 48.2738 28.2368C48.2738 28.2368 48.9731 28.4481 49.2617 28.6148C49.4948 28.7483 49.8945 29.1152 49.8945 29.1152C49.8945 29.1152 50.3607 29.7379 50.4939 30.1159C50.6049 30.4495 50.6715 31.2167 50.6715 31.2167C50.6715 31.2167 50.6049 31.9284 50.4828 32.2397C50.394 32.4732 50.1387 32.918 50.1387 32.918C50.1387 32.918 49.7168 33.5073 49.4615 33.763C49.184 34.0521 48.5735 34.5859 48.5735 34.5859C48.5735 34.5859 47.9962 35.064 47.7298 35.2864C47.4634 35.5087 47.0083 35.9535 47.0083 35.9535C47.0083 35.9535 46.5532 36.5095 46.4865 36.7875H50.7825V38.5888H44.0333V37.8549Z" fill="var(--fill-0, #146A56)"/>
</g>
</g>
</svg>
