<svg preserveAspectRatio="none" width="100%" height="100%" overflow="visible" style="display: block;" viewBox="0 0 152.264 123.534" fill="none" xmlns="http://www.w3.org/2000/svg">
<g id="Group 5008">
<path id="Vector" fill-rule="evenodd" clip-rule="evenodd" d="M42.5097 0.73686C48.0784 -1.32371 57.4737 1.13329 59.3352 5.67257C59.2109 7.63659 59.3225 7.89786 59.3985 8.07465C61.5888 13.192 60.7869 13.2994 60.7942 18.8934C60.796 20.2842 64.1254 20.2401 66.0889 21.0372C67.1345 21.4614 66.8585 21.1713 67.7909 21.3578L68.4415 21.4849C82.2862 25.9433 92.1841 27.3456 96.2727 28.5083C97.1246 29.1594 96.8749 29.5649 100.532 30.806C117.834 36.6776 118.474 35.9976 119.29 34.6997C119.903 33.5701 125.064 24.0511 131.264 23.9896C144.166 23.8623 146.893 33.9744 146.914 34.007C146.767 40.7022 144.594 41.3381 148.752 46.666C152.284 51.1921 152.511 58.9136 152.129 66.5899C152.174 67.3085 150.047 106.571 142.536 117.116C140.386 120.133 119.486 134.66 111.832 106.438C107.968 92.1934 109.184 89.1952 106.621 90.9148C104.523 92.3225 104.576 92.2344 102.298 93.1546C97.334 92.1524 97.3087 92.5325 96.8954 92.3925C82.0225 87.353 86.6674 80.084 81.7618 79.2815C76.2034 77.6023 76.2571 77.8569 70.8997 75.6938C68.4958 75.1893 68.751 76.0618 63.5613 79.5717C50.8316 84.6999 44.4556 74.9233 42.7644 72.9303C40.8987 70.3448 39.666 73.6127 37.5191 76.0516C32.6848 81.5448 32.5496 81.2419 27.9748 86.9813C17.8421 97.3481 -5.27788 85.8005 1.09328 67.8443C4.87832 57.1758 3.31433 56.6111 8.88842 46.7155C12.0846 41.2211 10.5996 40.7619 10.5604 40.6256C15.5926 30.5007 18.0104 18.9127 28.6698 13.4575C37.1746 9.10523 34.2874 5.59171 42.5097 0.73686Z" fill="var(--fill-0, black)"/>
<path id="Vector_2" fill-rule="evenodd" clip-rule="evenodd" d="M21.5787 47.7981C19.4301 43.3777 18.7525 43.6763 18.0809 38.7937C13.579 6.06725 62.2385 4.09658 63.782 33.9914C64.3661 45.3085 56.1914 47.1114 62.317 50.5646C78.437 59.6522 67.917 78.2836 57.0385 77.7822C38.0246 76.9054 43.3043 59.6908 41.2775 58.9704C32.8512 55.9758 30.9354 58.7869 21.5787 47.7981Z" fill="var(--fill-0, #BEBEBE)"/>
<path id="Vector_3" fill-rule="evenodd" clip-rule="evenodd" d="M134.178 81.3909C118.503 84.6196 118.473 77.4647 114.42 79.4003C113.441 79.868 108.109 95.4112 93.3235 88.7546C78.9303 82.2737 85.6454 59.4017 101.716 62.2207C109.256 63.5433 101.605 55.4139 110.843 44.9536C126.662 27.0408 158.497 44.5825 147.959 68.9068C144.731 76.358 135.521 80.7501 134.178 81.3909Z" fill="var(--fill-0, #BEBEBE)"/>
<path id="Vector_4" fill-rule="evenodd" clip-rule="evenodd" d="M71.7023 69.0432C76.2664 53.7238 61.4605 48.9335 61.5425 48.3048C61.5528 48.2252 64.9148 45.2806 65.5393 34.6001C65.8072 30.0137 62.9768 24.506 62.564 23.7023C61.3711 21.3817 64.1673 23.1629 105.277 35.294C110.644 36.8779 116.709 37.1735 113.308 39.6462C99.9095 49.3897 104.302 60.8299 101.694 60.7032C83.7417 59.8325 87.2993 72.932 82.5114 71.7247C77.8134 70.5402 77.2149 70.1667 75.7221 69.6895C73.9427 69.1205 73.9825 69.6526 72.1229 69.6128L71.7023 69.0432Z" fill="var(--fill-0, #BEBEBE)"/>
<path id="Vector_5" fill-rule="evenodd" clip-rule="evenodd" d="M114.047 103.326C112.403 96.8461 112.373 96.9336 110.38 90.624C109.555 88.0125 112.863 86.8172 114.387 82.8789C116.054 78.5719 117.221 82.7673 121.603 84.0676C140.218 89.591 149.692 70.6072 148.916 75.0053C143.265 106.988 144.901 121.879 128.825 120.424C116.011 119.264 114.498 104.966 114.047 103.326Z" fill="var(--fill-0, #BEBEBE)"/>
<path id="Vector_6" fill-rule="evenodd" clip-rule="evenodd" d="M15.1005 36.6601C15.9699 36.5696 15.8975 36.7742 15.9905 37.6225C18.4637 60.1777 40.3769 59.3873 40.4228 61.119C40.6285 68.849 41.5264 68.8997 41.0533 69.3625C30.4017 79.7848 20.4748 93.6832 9.53784 85.6063C-3.19905 76.2001 5.02209 67.5101 15.1005 36.6601Z" fill="var(--fill-0, #BEBEBE)"/>
<path id="Vector_7" fill-rule="evenodd" clip-rule="evenodd" d="M57.6262 33.5901C59.9089 35.7424 58.1083 36.1014 55.7014 44.8505C52.8685 46.3397 46.0189 40.5351 44.4519 44.8964C42.2791 50.9453 43.5571 53.383 39.5789 52.496C36.7581 51.8667 31.4314 51.0841 29.824 49.0712C32.1887 40.8133 33.4238 40.3034 31.7494 39.3331C29.0016 37.742 22.1664 36.9323 22.3323 35.317C22.371 34.9417 24.7833 26.1238 25.3324 25.0534C25.794 24.1544 32.8029 26.4611 34.111 26.7103C37.3349 27.3227 37.0206 22.2609 39.413 17.6251C39.7986 16.8769 40.2089 16.4358 49.7195 19.7526C50.8937 20.1617 50.2317 20.6137 48.6545 28.5705C48.1108 31.3123 53.2662 32.0539 57.6262 33.5901Z" fill="var(--fill-0, #898989)"/>
<path id="Vector_8" fill-rule="evenodd" clip-rule="evenodd" d="M88.7438 76.2115C93.8388 55.8472 108.605 68.9389 109.584 70.7732C117.614 85.8362 89.4776 95.7498 88.7438 76.2115Z" fill="var(--fill-0, black)"/>
<path id="Vector_9" fill-rule="evenodd" clip-rule="evenodd" d="M51.5062 73.4045C38.0663 62.9611 51.3197 53.9327 51.5587 53.8156C68.5778 45.5076 75.7514 80.3972 51.5062 73.4045Z" fill="var(--fill-0, black)"/>
<path id="Vector_10" fill-rule="evenodd" clip-rule="evenodd" d="M47.7428 64.8691C47.7814 64.0303 48.0734 57.7642 52.4226 55.4761C55.3038 53.9604 58.9531 54.559 60.5732 55.5184C72.9016 62.8218 55.2109 84.032 47.7428 64.8691Z" fill="var(--fill-0, #C3FE0C)"/>
<path id="Vector_11" fill-rule="evenodd" clip-rule="evenodd" d="M96.151 83.7146C95.4655 83.2657 89.959 79.661 90.7489 75.0113C91.5532 70.2765 95.1783 68.3741 95.7865 68.0549C108.637 61.3108 115.441 88.5549 96.151 83.7146Z" fill="var(--fill-0, #C3FE0C)"/>
<path id="Vector_12" fill-rule="evenodd" clip-rule="evenodd" d="M58.5928 15.8795C57.7686 19.9271 50.9274 8.88629 37.7271 10.8817C37.5678 10.9058 35.3528 11.2407 35.7631 10.4364C37.0411 7.93293 38.3046 0.145026 52.6953 5.91159C58.757 8.34083 58.6447 9.27306 58.5928 15.8795Z" fill="var(--fill-0, #898989)"/>
<path id="Vector_13" fill-rule="evenodd" clip-rule="evenodd" d="M144.915 38.81C143.889 44.3594 141.501 36.7024 133.094 35.5867C125.97 34.6406 126.017 35.5771 122.815 35.6169C121.196 35.6368 123.046 22.2639 141.988 31.8385C145.749 33.7397 144.722 34.5869 144.915 38.81Z" fill="var(--fill-0, #898989)"/>
<path id="Vector_14" fill-rule="evenodd" clip-rule="evenodd" d="M133.819 44.0715C143.104 50.8451 125.505 59.1803 125.548 49.1218C125.555 47.2061 125.735 47.308 126.4 45.4357C129.599 41.5584 132.71 43.6841 133.819 44.0715Z" fill="var(--fill-0, black)"/>
<path id="Vector_15" fill-rule="evenodd" clip-rule="evenodd" d="M140.323 57.6C141.033 57.8341 141.742 58.0683 142.451 58.3024C144.559 60.8076 144.753 60.7992 144.48 64.1504C139.839 73.2012 134.251 65.3783 133.934 64.0943C132.443 58.0695 139.595 57.6435 140.323 57.6Z" fill="var(--fill-0, black)"/>
<path id="Vector_16" fill-rule="evenodd" clip-rule="evenodd" d="M42.3281 44.7817C40.0033 51.571 32.5943 47.1096 33.4354 43.0361C35.1273 34.8409 44.4828 34.9091 42.3281 44.7817Z" fill="var(--fill-0, #140E0A)"/>
<path id="Vector_17" fill-rule="evenodd" clip-rule="evenodd" d="M31.7569 37.383C31.3635 37.2605 27.2943 35.9928 27.4288 34.5917C27.5815 32.9957 28.7732 28.3991 29.2619 27.9406C33.9774 23.5117 44.2186 39.3542 31.7569 37.383Z" fill="var(--fill-0, black)"/>
<path id="Vector_18" fill-rule="evenodd" clip-rule="evenodd" d="M47.4521 41.5959C47.2168 41.5072 44.5094 40.4875 44.5094 40.4875C36.3878 32.1957 54.1449 30.14 53.0401 35.238C51.9256 40.3819 52.5864 42.6584 47.4521 41.5959Z" fill="var(--fill-0, black)"/>
<path id="Vector_19" fill-rule="evenodd" clip-rule="evenodd" d="M41.3458 21.9694C47.5475 23.633 49.7552 24.9845 45.9177 30.1882C39.1181 39.4085 34.6048 21.7528 41.3458 21.9694Z" fill="var(--fill-0, black)"/>
<path id="Vector_20" fill-rule="evenodd" clip-rule="evenodd" d="M81.1079 57.7472C91.2321 61.3627 83.5142 64.2354 82.9832 64.1691C75.637 63.2447 75.903 61.1998 75.9845 60.5753C76.6591 55.3838 79.352 57.3417 81.1079 57.7472Z" fill="var(--fill-0, black)"/>
<path id="Vector_21" fill-rule="evenodd" clip-rule="evenodd" d="M72.1863 47.0444C67.6646 45.5872 67.2392 45.901 67.0865 44.8813C66.3775 40.1513 68.1985 39.7917 72.7529 41.1348C79.325 43.0729 75.8597 47.6961 72.1863 47.0444Z" fill="var(--fill-0, black)"/>
<path id="Vector_22" fill-rule="evenodd" clip-rule="evenodd" d="M134.497 49.0754C132.776 56.949 122.944 48.6126 129.036 45.1564C133.328 42.7211 134.399 48.5468 134.497 49.0754Z" fill="var(--fill-0, #C3FE0C)"/>
<path id="Vector_23" fill-rule="evenodd" clip-rule="evenodd" d="M142.257 60.4456C146.441 68.0875 134.566 68.1376 135.724 62.368C136.836 56.8253 141.804 60.1433 142.257 60.4456Z" fill="var(--fill-0, #C3FE0C)"/>
<path id="Vector_24" fill-rule="evenodd" clip-rule="evenodd" d="M71.7023 69.0433L72.1228 69.6129C76.5263 71.4732 76.3863 71.472 77.6178 71.8533C81.9556 73.197 84.0892 71.8617 83.4991 75.607C83.3633 76.4692 82.8522 76.9368 72.7467 73.7624C69.7853 72.8326 70.5124 71.9106 71.7023 69.0433Z" fill="var(--fill-0, #898989)"/>
<path id="Vector_25" fill-rule="evenodd" clip-rule="evenodd" d="M95.1231 47.7165C101.264 51.5939 102.416 51.4527 101.559 52.6124C101.47 52.7337 89.6848 56.8566 93.2671 48.4889C93.7184 47.4342 93.9254 47.7811 95.1231 47.7165Z" fill="var(--fill-0, black)"/>
<path id="Vector_26" fill-rule="evenodd" clip-rule="evenodd" d="M37.7934 45.8334C32.7841 43.8368 33.6422 41.4173 38.2731 38.6761C40.2402 37.5115 44.5647 46.5454 37.7934 45.8334Z" fill="var(--fill-0, #C3FE0C)"/>
<path id="Vector_27" fill-rule="evenodd" clip-rule="evenodd" d="M45.3973 26.7007C42.1728 35.7002 39.1034 28.862 39.4811 27.3457C41.3251 19.95 45.7364 24.0971 45.3973 26.7007Z" fill="var(--fill-0, #C3FE0C)"/>
<path id="Vector_28" fill-rule="evenodd" clip-rule="evenodd" d="M29.9828 34.9761C25.9473 30.7342 29.4005 28.0848 34.656 30.4832C35.009 30.6437 40.1649 37.9333 29.9828 34.9761Z" fill="var(--fill-0, #C3FE0C)"/>
<path id="Vector_29" fill-rule="evenodd" clip-rule="evenodd" d="M48.0561 39.7772C38.9576 36.0591 47.3857 33.7795 47.9969 33.9165C53.9644 35.2566 51.3644 40.3498 48.0561 39.7772Z" fill="var(--fill-0, #C3FE0C)"/>
<path id="Union" d="M36.0881 23.144C37.9193 13.7069 41.3555 15.192 50.2912 18.5015C53.7974 19.8007 50.1851 27.7772 50.0842 28.1382C49.5333 30.1384 55.9353 31.221 58.9348 32.7144H58.9338C60.8317 34.7079 57.8982 42.3645 56.8576 44.895L56.5471 45.6343C54.2947 48.1008 53.8353 46.3006 49.1144 45.0142C44.5791 43.7774 45.5353 46.2491 44.1584 50.8257C42.0715 57.7603 29.847 51.4449 28.5793 49.7398C28.4013 46.7025 29.6819 45.1492 30.5031 41.2378C30.8881 39.4029 23.5571 38.2667 22.048 37.606C19.5206 36.4985 22.9999 23.2689 26.2883 23.4849C32.3402 23.8825 34.9308 29.1061 36.0881 23.144ZM49.7199 19.7524C40.2093 16.4356 39.7988 16.8773 39.4133 17.6255C37.021 22.2611 37.335 27.3224 34.1115 26.7105C32.8034 26.4613 25.7941 24.1544 25.3322 25.0532C24.7832 26.1235 22.3715 34.9394 22.3322 35.3169C22.1663 36.9322 29.0013 37.7424 31.7492 39.3335C33.319 40.2431 32.3321 40.7479 30.2541 47.6118L29.8244 49.0708L29.9855 49.2564C31.7621 51.1328 36.8467 51.886 39.5793 52.4956C43.5571 53.3824 42.2786 50.9448 44.4514 44.896C46.0185 40.5351 52.8685 46.3392 55.7014 44.8501L55.925 44.0542C58.1427 36.3345 59.7322 35.7086 57.8283 33.7866L57.6262 33.5903L56.801 33.311C52.6441 31.9538 48.1451 31.1411 48.6545 28.5708C50.2316 20.6145 50.8938 20.1615 49.7199 19.7524Z" fill="var(--fill-0, #373737)"/>
<path id="Vector_30" fill-rule="evenodd" clip-rule="evenodd" d="M142.655 29.7175C142.033 29.5262 135.055 27.3788 134.878 27.345C132.937 26.9757 130.921 27.0276 129.003 26.5515C123.758 25.2476 139.895 25.034 142.655 29.7175Z" fill="var(--fill-0, #FA2E5E)"/>
<path id="Union_2" d="M123.92 46.0218C124.785 47.3981 124.449 48.5825 124.388 48.7992C123.028 53.5838 121.312 51.4368 116.414 50.1419C109.026 48.1879 110.58 52.3636 109.533 59.9408C109.439 60.628 113.537 61.8682 113.906 61.9798C118.358 63.1172 120.425 63.706 119.782 65.9759C119.587 66.6651 117.423 74.3081 118.649 74.8236C129.02 79.1758 129.437 76.9149 129.9 75.5941C132.053 69.4586 131.637 67.2278 135.481 68.2738C136.092 68.4403 142.96 70.3094 143.294 69.5824C143.465 69.2096 143.424 69.2248 145.053 64.7669C144.682 62.1508 146.319 62.3196 145.782 58.6566C146.285 58.6873 146.788 58.718 147.29 58.7494C147.23 59.6864 146.86 65.4227 144.451 70.14C143.72 71.5717 135.629 69.7519 134.879 69.5833C132.498 69.0481 131.802 74.8131 130.499 77.932C129.484 80.3615 120.86 77.1071 119.26 76.599C114.168 74.9826 117.98 67.9851 118.44 65.9349C118.971 63.5666 117.36 64.4835 109.588 62.2191C107.152 61.5095 109.992 51.8002 110.245 50.932C111.806 45.5988 119.199 49.5814 121.616 50.2464C122.62 50.5228 122.322 49.9481 123.92 46.0218ZM138.102 43.5687C139.478 44.7862 137.478 52.5428 137.282 53.3011C136.52 56.2553 145.16 54.7598 147.291 58.7494C146.789 58.718 146.285 58.6873 145.782 58.6566C143.774 57.8426 143.021 56.1602 142.451 58.3021C141.742 58.068 141.033 57.834 140.323 57.5999C140.074 55.4695 135.06 56.6115 135.73 53.9359C136.099 52.4618 136.712 51.0565 137.1 49.5872C137.921 46.4696 137.945 45.8225 137.957 45.4876C137.985 44.7334 137.264 45.1038 137.294 44.2972C137.563 44.0541 137.833 43.8112 138.102 43.5687ZM125.846 40.6527C129.621 39.2284 137.204 43.1095 138.102 43.5687C137.832 43.8113 137.562 44.054 137.293 44.2972C135.933 43.8568 134.571 43.4163 133.211 42.9759C130.779 42.3864 128.149 41.6758 127.71 41.557C127.088 41.256 126.467 40.9543 125.846 40.6527Z" fill="var(--fill-0, #373737)"/>
<path id="Vector_31" fill-rule="evenodd" clip-rule="evenodd" d="M79.3108 58.963C79.7048 59.0783 87.4064 61.3271 83.0409 62.4905C80.1024 63.2736 74.719 58.665 79.3108 58.963Z" fill="var(--fill-0, #898989)"/>
<path id="Vector_32" fill-rule="evenodd" clip-rule="evenodd" d="M44.8316 2.25501C48.1853 -1.8613 63.2042 9.07569 55.8332 5.62975C50.5873 3.17759 50.6501 3.24154 44.8316 2.25501Z" fill="var(--fill-0, #FA2E5E)"/>
<path id="Vector_33" fill-rule="evenodd" clip-rule="evenodd" d="M72.192 45.2004C69.6542 44.4028 68.1349 44.8939 69.1516 42.4653C69.5782 41.4474 73.9044 43.1519 74.2918 43.3052C74.5024 43.3878 76.359 45.4804 72.192 45.2004Z" fill="var(--fill-0, #FA2E5E)"/>
<path id="Union_3" d="M127.711 41.5571C128.15 41.6761 130.78 42.3866 133.211 42.976C134.571 43.4165 135.933 43.8569 137.294 44.2973C137.264 45.1039 137.985 44.7336 137.957 45.4878C137.945 45.8227 137.921 46.4697 137.1 49.5874C136.712 51.0566 136.099 52.4619 135.729 53.936C135.06 56.6116 140.074 55.4696 140.323 57.6001C139.595 57.6435 132.443 58.0695 133.933 64.0942C134.251 65.3782 139.839 73.2011 144.48 64.1508C144.752 60.7996 144.559 60.8075 142.451 58.3022C143.021 56.1604 143.774 57.8428 145.782 58.6567C146.319 62.3197 144.682 62.1509 145.053 64.7671C143.424 69.2251 143.465 69.2097 143.294 69.5825C142.96 70.3094 136.096 68.4411 135.481 68.2739C131.638 67.2276 132.053 69.4584 129.9 75.5942C129.437 76.915 129.02 79.1759 118.649 74.8237C117.423 74.3082 119.587 66.6657 119.782 65.976C120.425 63.7061 118.358 63.1173 113.906 61.9799C113.537 61.8682 109.439 60.6282 109.533 59.9409C110.58 52.3636 109.026 48.1877 116.415 50.1421C121.312 51.4369 123.028 53.5837 124.388 48.7993C124.449 48.5827 124.785 47.3983 123.92 46.0219C124.795 43.1139 124.529 43.1604 125.846 40.6528C126.467 40.9545 127.089 41.256 127.711 41.5571ZM133.819 44.0717C132.71 43.6844 129.599 41.5587 126.4 45.436C125.736 47.3081 125.556 47.2061 125.548 49.1215C125.506 59.0227 142.558 51.1011 134.235 44.3901L133.819 44.0717Z" fill="var(--fill-0, #898989)"/>
<path id="Vector_34" fill-rule="evenodd" clip-rule="evenodd" d="M35.4724 48.1371C37.857 48.9771 37.5909 49.289 38.3131 49.6722C36.4722 51.0141 34.9378 51.7237 34.6729 48.4497L35.4724 48.1371Z" fill="var(--fill-0, black)"/>
<path id="Vector_35" fill-rule="evenodd" clip-rule="evenodd" d="M25.5982 29.6511C28.8444 30.0047 25.7804 33.3818 25.145 32.7048C23.8254 31.2984 24.1362 30.9659 25.5982 29.6511Z" fill="var(--fill-0, black)"/>
<path id="Vector_36" fill-rule="evenodd" clip-rule="evenodd" d="M42.1938 20.7843C42.3483 20.6009 43.8694 18.789 44.9229 19.548C50.0161 23.2172 42.4231 20.8555 42.1938 20.7843Z" fill="var(--fill-0, black)"/>
<path id="Vector_37" fill-rule="evenodd" clip-rule="evenodd" d="M96.3331 50.179C100.918 52.7011 94.3974 52.1002 94.2743 50.9212C94.112 49.3632 94.8065 49.5503 96.3331 50.179Z" fill="var(--fill-0, #FA2E5E)"/>
<path id="Union_4" d="M53.7578 38.6432C54.2204 37.2071 54.7398 37.0042 55.9209 38.1559L55.9658 38.361C56.3275 40.4711 53.5251 42.1079 53.666 38.9459L53.7578 38.6432Z" fill="var(--fill-0, black)"/>
<path id="Vector_38" fill-rule="evenodd" clip-rule="evenodd" d="M128.851 66.5706C135.22 77.796 118.252 78.8833 119.717 69.5948C121.121 60.6888 128.238 66.1042 128.851 66.5706Z" fill="var(--fill-0, black)"/>
<path id="Vector_39" fill-rule="evenodd" clip-rule="evenodd" d="M114.332 61.2028C104.064 55.8647 119.537 45.3139 121.796 55.0567C123.579 62.7499 115.094 61.3302 114.332 61.2028Z" fill="var(--fill-0, black)"/>
<path id="Vector_40" fill-rule="evenodd" clip-rule="evenodd" d="M121.773 72.5116C121.63 71.9999 120.038 66.3317 124.616 66.5103C132.412 66.815 127.123 78.3705 121.773 72.5116Z" fill="var(--fill-0, #C3FE0C)"/>
<path id="Vector_41" fill-rule="evenodd" clip-rule="evenodd" d="M113.943 59.1254C113.634 58.6753 110.594 54.2428 115.517 52.4809C120.579 50.6695 123.786 63.4716 113.943 59.1254Z" fill="var(--fill-0, #C3FE0C)"/>
</g>
</svg>
