<svg preserveAspectRatio="none" width="100%" height="100%" overflow="visible" style="display: block;" viewBox="0 0 63.3351 59.0043" fill="none" xmlns="http://www.w3.org/2000/svg">
<g id="Group 5007">
<path id="Vector" fill-rule="evenodd" clip-rule="evenodd" d="M2.81211 27.8209C5.78467 20.4021 7.05665 3.97656 12.4814 17.1805C17.4347 29.2375 17.0241 30.3564 17.8739 29.6761C18.8762 28.8733 18.2533 28.28 29.5371 18.6488C32.7952 15.8678 33.806 13.5556 36.0312 17.2644C36.3436 17.7848 37.5449 32.7901 37.6531 34.1423C37.8299 34.2779 38.0062 34.4136 38.183 34.5498C47.2337 30.852 55.2673 24.5306 54.9137 29.9357C54.8931 30.253 43.7719 53.7289 40.5776 56.6259C38.4675 56.9178 39.7316 59.1979 37.6278 58.991C37.1881 58.9477 36.5505 58.8849 32.3899 57.2498L30.8366 56.6402C22.1322 53.1836 22.148 53.371 13.4678 49.7408L12.8556 49.3809C9.12986 47.7695 9.25864 47.7056 5.53555 46.1069C1.11314 43.6168 -0.902528 43.4421 0.382131 41.1398C0.597473 40.915 2.39093 35.3546 2.81211 27.8209Z" fill="var(--fill-0, black)"/>
<path id="Vector_2" fill-rule="evenodd" clip-rule="evenodd" d="M33.1766 31.5203C33.2689 32.9105 32.8657 40.2875 36.0399 39.935C36.2948 39.9065 49.6708 32.151 49.6317 33.1316C49.6011 33.8885 42.9071 42.6072 39.0684 53.6297C38.2551 55.9647 34.6586 52.144 21.2209 47.484C3.00926 41.1684 2.52895 41.2291 2.73743 40.4691C3.16284 38.9189 7.37045 23.5875 7.75046 21.0108C8.8372 13.6527 13.3525 41.6244 18.7149 32.0887C18.8791 31.7974 32.3252 18.4605 32.4509 20.3954C32.8182 26.0623 32.6287 25.951 33.1766 31.5203Z" fill="var(--fill-0, #FA2E5E)"/>
<path id="Vector_3" fill-rule="evenodd" clip-rule="evenodd" d="M12.9688 5.17631C9.22834 12.793 1.85131 4.52237 8.11627 0.0102243C8.26986 -0.100613 12.4643 0.685277 13.095 2.58429C13.5225 3.87159 13.2164 3.83676 12.9688 5.17631Z" fill="var(--fill-0, #150E0B)"/>
<path id="Vector_4" fill-rule="evenodd" clip-rule="evenodd" d="M38.2929 3.30312C37.4754 5.20794 35.6803 7.19879 36.6599 8.21375C39.273 10.9198 39.1443 4.04468 39.2097 3.54644C39.7058 3.79239 44.2908 6.06403 41.1076 10.2035C36.2361 16.5392 29.0813 3.11364 38.2929 3.30312Z" fill="var(--fill-0, black)"/>
<path id="Vector_5" fill-rule="evenodd" clip-rule="evenodd" d="M58.2441 18.1353C58.0916 20.8492 55.7946 21.0761 57.7744 22.9556C60.5944 25.6326 59.5631 19.441 59.7663 18.2171C68.5726 21.0798 58.7851 30.5633 54.9259 23.6418C54.2466 22.4231 55.0235 19.0816 58.2441 18.1353Z" fill="var(--fill-0, black)"/>
<path id="Vector_6" fill-rule="evenodd" clip-rule="evenodd" d="M38.2929 3.30321C38.5985 3.38449 38.9041 3.46525 39.2097 3.54653C39.1443 4.04477 39.2731 10.9199 36.6599 8.21384C35.6803 7.19889 37.4754 5.20803 38.2929 3.30321Z" fill="var(--fill-0, #FA2E5E)"/>
<path id="Vector_7" fill-rule="evenodd" clip-rule="evenodd" d="M58.2443 18.1353C58.752 18.1622 59.2592 18.1896 59.7664 18.2171C59.5632 19.441 60.5945 25.6326 57.7745 22.9557C55.7947 21.0762 58.0917 20.8492 58.2443 18.1353Z" fill="var(--fill-0, #FA2E5E)"/>
<path id="Vector_8" fill-rule="evenodd" clip-rule="evenodd" d="M9.63285 3.02869C9.74105 3.24456 11.1782 6.11208 8.58201 5.86085C7.60452 5.76637 6.06969 1.44477 9.63285 3.02869Z" fill="var(--fill-0, #FA2E5E)"/>
</g>
</svg>
