<svg width="358" height="321" viewBox="0 0 358 321" fill="none" xmlns="http://www.w3.org/2000/svg">
<g filter="url(#filter0_dd_367_3625)">
<path fill-rule="evenodd" clip-rule="evenodd" d="M250.935 61.1686C249.146 62.9278 248.853 61.7753 246.452 61.2124C237.601 59.1382 222.955 59.2742 223.122 53.6504C223.168 52.1431 237.553 33.6973 237.841 33.4988C240.119 31.9301 239.843 33.6146 240.281 34.5044C242.517 39.0414 237.56 41.9039 237.682 43.0459C237.772 43.9029 258.987 35.7473 274.221 39.1251C316.442 48.4867 321.918 78.1432 323.906 86.8205C324.344 88.7353 324.765 86.5002 328.484 78.7607C330.013 75.5771 335.122 79.2908 334.75 80.5491C334.288 82.1091 331.255 92.3477 327.884 99.6941C326.522 102.663 326.056 102.22 323.593 104.487C322.364 105.617 321.889 104.702 305.205 87.4111C302.938 85.0617 303.975 83.1422 305.579 84.2845C305.688 84.3619 310.566 87.8364 307.197 83.8949C304.022 80.1803 310.04 81.2032 316.918 88.9806C320.494 93.0251 317.495 85.5221 317.063 83.7707C307.789 46.179 264.787 39.7266 238.479 52.5848C236.747 53.4316 242.486 53.6648 247.924 55.4383C251.792 56.6996 254.259 56.9659 251.552 59.9612C251.236 59.8984 240.954 57.8638 247.521 60.0226C249.346 60.6228 249.426 60.1095 250.935 61.1686Z" fill="#EEEFF3"/>
</g>
<g filter="url(#filter1_dd_367_3625)">
<path fill-rule="evenodd" clip-rule="evenodd" d="M274.908 165.634C277.59 158.105 278.222 141.642 284.156 154.625C289.575 166.481 289.208 167.615 290.031 166.902C291.001 166.061 290.356 165.492 301.256 155.429C304.404 152.524 305.324 150.174 307.692 153.793C308.024 154.301 309.808 169.249 309.969 170.596C310.151 170.724 310.332 170.853 310.514 170.982C319.414 166.935 327.196 160.306 327.053 165.721C327.044 166.039 316.844 189.929 313.765 192.948C311.668 193.322 313.02 195.551 310.91 195.426C310.469 195.4 309.829 195.362 305.608 193.89L304.032 193.341C295.2 190.226 295.223 190.413 286.408 187.123L285.782 186.787C281.997 185.321 282.123 185.253 278.341 183.8C273.825 181.484 271.804 181.387 272.998 179.037C273.204 178.804 274.78 173.178 274.908 165.634Z" fill="black"/>
<path fill-rule="evenodd" clip-rule="evenodd" d="M305.394 168.15C305.54 169.535 305.424 176.922 308.582 176.447C308.836 176.408 321.9 168.138 321.899 169.12C321.898 169.877 315.548 178.85 312.141 190.013C311.419 192.378 307.676 188.7 294.068 184.566C275.624 178.963 275.147 179.043 275.325 178.275C275.69 176.71 279.299 161.226 279.578 158.637C280.378 151.242 285.977 179.017 290.965 169.28C291.118 168.982 304.035 155.133 304.236 157.061C304.823 162.71 304.63 162.606 305.394 168.15Z" fill="#FA2E5E"/>
<path fill-rule="evenodd" clip-rule="evenodd" d="M284.177 142.611C280.735 150.368 273.042 142.39 279.127 137.638C279.276 137.521 283.498 138.143 284.202 140.016C284.679 141.286 284.372 141.263 284.177 142.611Z" fill="#150E0B"/>
<path fill-rule="evenodd" clip-rule="evenodd" d="M309.409 139.755C308.666 141.69 306.95 143.749 307.968 144.725C310.685 147.327 310.289 140.463 310.335 139.962C310.84 140.189 315.51 142.28 312.49 146.54C307.868 153.061 300.197 139.924 309.409 139.755Z" fill="black"/>
<path fill-rule="evenodd" clip-rule="evenodd" d="M329.922 153.8C329.875 156.518 327.589 156.834 329.64 158.635C332.562 161.2 331.291 155.053 331.446 153.822C340.357 156.341 330.946 166.198 326.82 159.431C326.094 158.24 326.74 154.871 329.922 153.8Z" fill="black"/>
<path fill-rule="evenodd" clip-rule="evenodd" d="M309.409 139.755C309.718 139.824 310.026 139.893 310.335 139.962C310.289 140.463 310.685 147.328 307.968 144.725C306.95 143.749 308.666 141.69 309.409 139.755Z" fill="#FA2E5E"/>
<path fill-rule="evenodd" clip-rule="evenodd" d="M329.922 153.8C330.43 153.807 330.938 153.815 331.446 153.823C331.291 155.053 332.562 161.2 329.64 158.635C327.589 156.834 329.875 156.518 329.922 153.8Z" fill="#FA2E5E"/>
<path fill-rule="evenodd" clip-rule="evenodd" d="M280.76 140.595C280.876 140.807 282.424 143.616 279.82 143.466C278.84 143.41 277.138 139.151 280.76 140.595Z" fill="#FA2E5E"/>
<path fill-rule="evenodd" clip-rule="evenodd" d="M241.219 176.693C246.922 175.039 256.116 178.168 257.645 182.83C257.379 184.78 257.472 185.048 257.535 185.23C259.35 190.492 258.542 190.541 258.146 196.121C258.047 197.509 261.371 197.705 263.272 198.642C264.285 199.14 264.03 198.831 264.947 199.084L265.586 199.258C279.073 204.704 288.844 206.816 292.838 208.271C293.641 208.982 293.363 209.368 296.921 210.87C313.754 217.975 314.442 217.343 315.349 216.107C316.041 215.025 321.877 205.903 328.064 206.289C340.943 207.093 342.932 217.375 342.951 217.409C342.321 224.076 340.108 224.554 343.871 230.168C347.067 234.937 346.736 242.655 345.801 250.284C345.794 251.004 340.84 290.01 332.587 299.985C330.225 302.84 308.332 315.821 302.734 287.12C299.908 272.634 301.337 269.731 298.657 271.262C296.462 272.514 296.522 272.43 294.184 273.184C289.305 271.826 289.252 272.203 288.85 272.034C274.379 265.934 279.537 259.019 274.702 257.865C269.279 255.789 269.314 256.047 264.127 253.503C261.766 252.826 261.957 253.715 256.528 256.841C243.461 261.037 237.807 250.826 236.264 248.716C234.59 246.003 233.125 249.173 230.807 251.451C225.589 256.581 225.476 256.269 220.499 261.664C209.645 271.272 187.419 258.087 195.069 240.637C199.614 230.269 198.095 229.593 204.368 220.126C207.952 214.876 206.504 214.311 206.475 214.172C212.225 204.437 215.472 193.054 226.498 188.382C235.294 184.654 232.668 180.942 241.219 176.693Z" fill="black"/>
<path fill-rule="evenodd" clip-rule="evenodd" d="M216.947 222.121C215.123 217.557 214.426 217.806 214.108 212.888C211.979 179.922 260.654 181.467 260.037 211.395C259.803 222.725 251.519 223.934 257.38 227.82C272.802 238.047 260.965 255.871 250.151 254.586C231.25 252.339 237.758 235.55 235.788 234.686C227.6 231.091 225.487 233.756 216.947 222.121Z" fill="#BEBEBE"/>
<path fill-rule="evenodd" clip-rule="evenodd" d="M326.829 263.751C310.962 265.84 311.448 258.702 307.266 260.34C306.256 260.736 299.816 275.854 285.55 268.148C271.662 260.645 280.009 238.317 295.835 242.288C303.26 244.152 296.215 235.491 306.184 225.725C323.255 209 353.741 228.793 341.475 252.294C337.717 259.493 328.215 263.209 326.829 263.751Z" fill="#BEBEBE"/>
<path fill-rule="evenodd" clip-rule="evenodd" d="M265.407 246.927C271.065 231.977 256.643 226.131 256.77 225.51C256.786 225.431 260.352 222.737 261.746 212.129C262.344 207.574 259.918 201.877 259.564 201.045C258.542 198.645 261.202 200.623 301.33 215.689C306.568 217.656 312.596 218.388 309.026 220.609C294.959 229.36 298.515 241.088 295.922 240.773C278.08 238.609 280.683 251.931 275.995 250.382C271.395 248.861 270.824 248.446 269.37 247.862C267.636 247.166 267.638 247.7 265.786 247.526L265.407 246.927Z" fill="#BEBEBE"/>
<path fill-rule="evenodd" clip-rule="evenodd" d="M305.168 284.176C303.996 277.594 303.959 277.68 302.427 271.243C301.793 268.578 305.178 267.625 306.982 263.807C308.956 259.631 309.816 263.9 314.094 265.513C332.262 272.365 343.081 254.115 341.989 258.445C334.045 289.937 334.603 304.907 318.674 302.296C305.977 300.215 305.499 285.845 305.168 284.176Z" fill="#BEBEBE"/>
<path fill-rule="evenodd" clip-rule="evenodd" d="M211.289 210.545C212.163 210.517 212.076 210.716 212.108 211.569C212.947 234.244 234.86 235.036 234.781 236.767C234.428 244.492 235.32 244.607 234.815 245.034C223.439 254.661 212.535 267.807 202.21 258.962C190.185 248.661 199.011 240.587 211.289 210.545Z" fill="#BEBEBE"/>
<path fill-rule="evenodd" clip-rule="evenodd" d="M253.926 210.551C256.047 212.863 254.225 213.091 251.194 221.643C248.261 222.924 241.848 216.641 239.97 220.877C237.366 226.754 238.465 229.277 234.561 228.106C231.793 227.274 226.537 226.11 225.079 223.986C228.033 215.92 229.302 215.501 227.702 214.412C225.076 212.627 218.317 211.326 218.599 209.727C218.665 209.356 221.707 200.735 222.332 199.707C222.857 198.843 229.682 201.65 230.968 201.993C234.14 202.836 234.191 197.765 236.912 193.314C237.351 192.595 237.792 192.185 247.038 196.179C248.18 196.672 247.487 197.075 245.34 204.897C244.6 207.593 249.688 208.704 253.926 210.551Z" fill="#898989"/>
<path fill-rule="evenodd" clip-rule="evenodd" d="M281.887 255.307C288.438 235.363 302.222 249.486 303.065 251.386C309.988 266.989 281.209 274.847 281.887 255.307Z" fill="black"/>
<path fill-rule="evenodd" clip-rule="evenodd" d="M244.949 249.82C232.298 238.434 246.168 230.386 246.415 230.286C263.989 223.228 268.626 258.544 244.949 249.82Z" fill="black"/>
<path fill-rule="evenodd" clip-rule="evenodd" d="M241.811 241.036C241.91 240.202 242.654 233.973 247.157 232.005C250.14 230.701 253.736 231.561 255.283 232.635C267.052 240.809 247.877 260.687 241.811 241.036Z" fill="#C3FE0C"/>
<path fill-rule="evenodd" clip-rule="evenodd" d="M288.733 263.325C288.082 262.827 282.85 258.835 283.973 254.254C285.117 249.59 288.87 247.954 289.5 247.679C302.803 241.88 307.624 269.544 288.733 263.325Z" fill="#C3FE0C"/>
<path fill-rule="evenodd" clip-rule="evenodd" d="M256.168 192.956C255.054 196.934 249.027 185.428 235.717 186.466C235.556 186.479 233.323 186.653 233.79 185.88C235.245 183.476 237.068 175.799 251.005 182.589C256.875 185.449 256.696 186.371 256.168 192.956Z" fill="#898989"/>
<path fill-rule="evenodd" clip-rule="evenodd" d="M340.611 222.056C339.187 227.516 337.357 219.707 329.053 217.988C322.015 216.53 321.995 217.467 318.798 217.276C317.182 217.179 319.992 203.975 338.194 214.891C341.808 217.059 340.722 217.829 340.611 222.056Z" fill="#898989"/>
<path fill-rule="evenodd" clip-rule="evenodd" d="M329.164 226.503C337.936 233.929 319.781 240.972 320.55 230.943C320.696 229.033 320.868 229.148 321.665 227.328C325.136 223.692 328.085 226.036 329.164 226.503Z" fill="black"/>
<path fill-rule="evenodd" clip-rule="evenodd" d="M334.675 240.465C335.366 240.75 336.056 241.035 336.747 241.319C338.668 243.97 338.862 243.976 338.349 247.298C333.066 255.991 328.058 247.785 327.834 246.482C326.782 240.365 333.946 240.456 334.675 240.465Z" fill="black"/>
<path fill-rule="evenodd" clip-rule="evenodd" d="M237.86 220.61C235.051 227.213 227.984 222.229 229.116 218.227C231.395 210.175 240.721 210.918 237.86 220.61Z" fill="#140E0A"/>
<path fill-rule="evenodd" clip-rule="evenodd" d="M227.85 212.467C227.467 212.317 223.499 210.759 223.735 209.371C224.002 207.79 225.522 203.292 226.043 202.87C231.066 198.793 240.137 215.333 227.85 212.467Z" fill="black"/>
<path fill-rule="evenodd" clip-rule="evenodd" d="M243.2 217.802C242.972 217.696 240.345 216.484 240.345 216.484C232.843 207.628 250.702 206.859 249.233 211.864C247.75 216.914 248.245 219.232 243.2 217.802Z" fill="black"/>
<path fill-rule="evenodd" clip-rule="evenodd" d="M238.526 197.786C244.592 199.893 246.696 201.4 242.493 206.313C235.046 215.019 231.819 197.084 238.526 197.786Z" fill="black"/>
<path fill-rule="evenodd" clip-rule="evenodd" d="M275.603 236.34C285.44 240.676 277.535 242.985 277.01 242.88C269.75 241.428 270.163 239.408 270.289 238.791C271.336 233.661 273.881 235.809 275.603 236.34Z" fill="black"/>
<path fill-rule="evenodd" clip-rule="evenodd" d="M267.477 225.021C263.072 223.241 262.625 223.524 262.547 222.495C262.181 217.727 264.023 217.499 268.468 219.168C274.884 221.575 271.094 225.936 267.477 225.021Z" fill="black"/>
<path fill-rule="evenodd" clip-rule="evenodd" d="M329.478 231.543C327.194 239.271 317.989 230.247 324.315 227.24C328.772 225.121 329.42 231.008 329.478 231.543Z" fill="#C3FE0C"/>
<path fill-rule="evenodd" clip-rule="evenodd" d="M336.398 243.443C340.02 251.367 328.172 250.56 329.744 244.889C331.253 239.441 335.968 243.109 336.398 243.443Z" fill="#C3FE0C"/>
<path fill-rule="evenodd" clip-rule="evenodd" d="M265.407 246.928L265.786 247.526C270.043 249.699 269.904 249.688 271.105 250.157C275.334 251.81 277.558 250.632 276.7 254.325C276.502 255.175 275.959 255.605 266.108 251.71C263.222 250.569 264.013 249.702 265.407 246.928Z" fill="#898989"/>
<path fill-rule="evenodd" clip-rule="evenodd" d="M290.306 227.346C296.151 231.657 297.31 231.599 296.372 232.694C296.274 232.808 284.222 236.07 288.399 227.983C288.925 226.963 289.107 227.324 290.306 227.346Z" fill="black"/>
<path fill-rule="evenodd" clip-rule="evenodd" d="M233.261 221.332C228.409 218.979 229.439 216.627 234.256 214.227C236.302 213.208 239.963 222.53 233.261 221.332Z" fill="#C3FE0C"/>
<path fill-rule="evenodd" clip-rule="evenodd" d="M242.226 202.797C238.361 211.541 235.793 204.499 236.279 203.014C238.652 195.77 242.752 200.225 242.226 202.797Z" fill="#C3FE0C"/>
<path fill-rule="evenodd" clip-rule="evenodd" d="M226.254 209.939C222.536 205.417 226.171 203.024 231.24 205.795C231.58 205.981 236.197 213.623 226.254 209.939Z" fill="#C3FE0C"/>
<path fill-rule="evenodd" clip-rule="evenodd" d="M243.934 216.031C235.128 211.667 243.698 210.001 244.298 210.182C250.153 211.949 247.192 216.841 243.934 216.031Z" fill="#C3FE0C"/>
<path d="M233.197 198.578C235.705 189.298 239.025 191.027 247.699 194.973C251.102 196.521 246.923 204.217 246.797 204.569C246.103 206.525 252.41 208.066 255.294 209.772L255.293 209.772C257.042 211.897 253.564 219.322 252.343 221.771L251.98 222.486C249.556 224.784 249.228 222.955 244.612 221.331C240.178 219.771 240.953 222.305 239.249 226.77C236.668 233.536 224.931 226.355 223.789 224.563C223.831 221.521 225.22 220.064 226.322 216.222C226.838 214.42 219.608 212.757 218.151 211.989C215.71 210.703 220.134 197.758 223.399 198.211C229.406 199.044 231.613 204.441 233.197 198.578ZM247.039 196.179C237.792 192.185 237.351 192.596 236.912 193.314C234.192 197.765 234.14 202.836 230.969 201.993C229.682 201.65 222.857 198.843 222.332 199.706C221.707 200.734 218.666 209.353 218.599 209.727C218.317 211.326 225.076 212.627 227.702 214.413C229.202 215.433 228.181 215.865 225.613 222.561L225.079 223.986L225.227 224.182C226.863 226.182 231.88 227.3 234.562 228.105C238.465 229.277 237.366 226.753 239.969 220.877C241.847 216.64 248.261 222.924 251.193 221.643L251.474 220.865C254.243 213.326 255.873 212.816 254.113 210.762L253.926 210.551L253.123 210.213C249.075 208.56 244.646 207.424 245.34 204.898C247.487 197.076 248.18 196.672 247.039 196.179Z" fill="#373737"/>
<path fill-rule="evenodd" clip-rule="evenodd" d="M339.012 212.824C338.406 212.588 331.601 209.943 331.427 209.896C329.518 209.388 327.503 209.294 325.625 208.681C320.487 207.002 336.598 207.953 339.012 212.824Z" fill="#FA2E5E"/>
<path d="M319.15 227.734C319.913 229.169 319.493 230.326 319.416 230.538C317.715 235.212 316.157 232.946 311.366 231.302C304.138 228.819 305.387 233.096 303.796 240.578C303.653 241.257 307.65 242.79 308.011 242.928C312.369 244.383 314.388 245.12 313.583 247.337C313.339 248.011 310.629 255.478 311.815 256.08C321.844 261.169 322.423 258.944 322.981 257.66C325.57 251.696 325.317 249.441 329.074 250.762C329.673 250.972 336.388 253.332 336.773 252.631C336.971 252.271 336.929 252.284 338.875 247.955C338.693 245.319 340.315 245.605 340.043 241.913C340.542 241.98 341.042 242.047 341.54 242.114C341.413 243.045 340.63 248.739 337.887 253.27C337.054 254.646 329.116 252.247 328.38 252.025C326.044 251.319 324.933 257.019 323.409 260.035C322.222 262.385 313.854 258.517 312.295 257.895C307.333 255.915 311.641 249.211 312.248 247.2C312.948 244.876 311.275 245.674 303.686 242.855C301.308 241.971 304.841 232.492 305.156 231.644C307.097 226.438 314.184 230.943 316.547 231.781C317.529 232.129 317.272 231.534 319.15 227.734ZM333.471 226.31C334.757 227.624 332.202 235.216 331.952 235.958C330.979 238.85 339.704 237.981 341.541 242.114C341.042 242.047 340.542 241.98 340.043 241.913C338.099 240.956 337.47 239.224 336.746 241.319C336.056 241.034 335.365 240.75 334.675 240.465C334.58 238.322 329.496 239.1 330.357 236.479C330.833 235.036 331.545 233.678 332.038 232.241C333.082 229.191 333.152 228.547 333.189 228.214C333.271 227.464 332.526 227.781 332.613 226.979C332.899 226.756 333.185 226.533 333.471 226.31ZM321.458 222.518C325.326 221.369 332.61 225.788 333.471 226.31C333.185 226.533 332.898 226.755 332.612 226.979C331.287 226.441 329.961 225.904 328.636 225.366C326.253 224.603 323.681 223.704 323.252 223.554C322.653 223.209 322.056 222.863 321.458 222.518Z" fill="#373737"/>
<path fill-rule="evenodd" clip-rule="evenodd" d="M273.723 237.423C274.108 237.566 281.627 240.365 277.189 241.21C274.202 241.779 269.165 236.794 273.723 237.423Z" fill="#898989"/>
<path fill-rule="evenodd" clip-rule="evenodd" d="M243.425 178.375C247.067 174.511 261.258 186.503 254.155 182.534C249.099 179.71 249.157 179.778 243.425 178.375Z" fill="#FA2E5E"/>
<path fill-rule="evenodd" clip-rule="evenodd" d="M267.616 223.182C265.142 222.203 263.592 222.584 264.781 220.235C265.28 219.25 269.472 221.262 269.847 221.443C270.051 221.541 271.752 223.762 267.616 223.182Z" fill="#FA2E5E"/>
<path d="M323.253 223.554C323.682 223.705 326.254 224.603 328.636 225.366C329.961 225.904 331.288 226.441 332.613 226.979C332.525 227.781 333.271 227.464 333.188 228.214C333.152 228.547 333.082 229.191 332.038 232.241C331.545 233.678 330.832 235.036 330.357 236.479C329.496 239.1 334.58 238.322 334.675 240.465C333.946 240.456 326.781 240.365 327.833 246.482C328.057 247.785 333.066 255.991 338.348 247.299C338.862 243.976 338.668 243.97 336.746 241.319C337.47 239.224 338.098 240.956 340.043 241.913C340.314 245.605 338.693 245.319 338.875 247.955C336.929 252.284 336.971 252.271 336.773 252.631C336.388 253.332 329.676 250.973 329.075 250.762C325.317 249.441 325.57 251.696 322.981 257.661C322.423 258.945 321.844 261.169 311.815 256.08C310.629 255.478 313.338 248.011 313.583 247.337C314.387 245.12 312.369 244.383 308.01 242.928C307.65 242.79 303.653 241.257 303.796 240.579C305.387 233.096 304.138 228.819 311.367 231.302C316.158 232.947 317.715 235.212 319.416 230.538C319.493 230.326 319.913 229.169 319.149 227.734C320.232 224.897 319.964 224.924 321.458 222.518C322.056 222.863 322.654 223.209 323.253 223.554ZM329.164 226.503C328.086 226.037 325.136 223.692 321.666 227.328C320.868 229.148 320.696 229.033 320.549 230.943C319.793 240.815 337.373 234.145 329.556 226.851L329.164 226.503Z" fill="#898989"/>
<path fill-rule="evenodd" clip-rule="evenodd" d="M230.78 223.462C233.098 224.472 232.81 224.763 233.503 225.198C231.57 226.403 229.988 227 229.96 223.716L230.78 223.462Z" fill="black"/>
<path fill-rule="evenodd" clip-rule="evenodd" d="M222.265 204.312C225.478 204.898 222.178 208.046 221.593 207.325C220.378 205.827 220.712 205.517 222.265 204.312Z" fill="black"/>
<path fill-rule="evenodd" clip-rule="evenodd" d="M239.458 196.665C239.625 196.493 241.273 194.796 242.269 195.629C247.084 199.656 239.681 196.753 239.458 196.665Z" fill="black"/>
<path fill-rule="evenodd" clip-rule="evenodd" d="M291.335 229.89C295.726 232.736 289.266 231.666 289.228 230.481C289.179 228.916 289.858 229.152 291.335 229.89Z" fill="#FA2E5E"/>
<path d="M249.703 215.312C250.268 213.913 250.801 213.748 251.896 214.982L251.926 215.19C252.134 217.32 249.221 218.751 249.59 215.607L249.703 215.312Z" fill="black"/>
<path fill-rule="evenodd" clip-rule="evenodd" d="M322.585 248.585C328.128 260.241 311.126 260.101 313.257 250.942C315.3 242.161 322.007 248.075 322.585 248.585Z" fill="black"/>
<path fill-rule="evenodd" clip-rule="evenodd" d="M308.491 242.183C298.636 236.118 314.829 226.711 316.379 236.592C317.603 244.394 309.243 242.365 308.491 242.183Z" fill="black"/>
<path fill-rule="evenodd" clip-rule="evenodd" d="M315.097 254C314.991 253.479 313.813 247.711 318.366 248.219C326.12 249.085 320.011 260.229 315.097 254Z" fill="#C3FE0C"/>
<path fill-rule="evenodd" clip-rule="evenodd" d="M308.254 240.083C307.978 239.612 305.266 234.972 310.303 233.57C315.482 232.128 317.757 245.128 308.254 240.083Z" fill="#C3FE0C"/>
</g>
<g filter="url(#filter2_dd_367_3625)">
<path fill-rule="evenodd" clip-rule="evenodd" d="M134.246 241.978C133.113 245.091 126.8 264.583 126.162 266.551C123.763 274.423 123.693 274.32 120.975 282.096C117.983 289.045 118.353 289.112 115.598 296.103C114.291 296.583 114.322 296.728 113.148 296.153C109.971 291.973 110.009 292.081 107.532 287.434L107.134 286.473C106.645 285.037 106.125 279.88 103.639 283.269C99.9578 288.287 100.027 288.22 96.7739 293.471C92.3615 298.922 90.6039 303.868 84.1696 298.569C83.2319 297.435 83.2506 297.546 79.0217 293.417C78.3328 292.168 77.7834 291.455 86.3058 281.879C90.8355 277.2 90.8101 277.234 91.198 276.826C91.5659 276.439 91.3958 276.422 91.7764 276.021L92.577 275.151C95.0982 273.004 95.0976 273.034 95.2997 272.832C96.1561 271.976 95.4457 271.221 81.5834 266.444C76.7429 262.854 81.6437 261.133 107.588 249.751C114.74 247.624 128.85 240.83 130.656 239.96C133.507 239.185 134.88 239.104 134.246 241.978Z" fill="black"/>
<path fill-rule="evenodd" clip-rule="evenodd" d="M86.9443 263.751C108.38 254.039 108.363 254.282 129.489 243.811C132.064 242.535 129.945 245.393 118.257 277.932C114.19 289.252 113.638 290.161 113.203 289.268C109.681 282.05 107.116 274.249 104.055 277.436C95.4987 286.343 88.1793 297.242 87.4574 296.583C82.7121 292.253 83.1311 291.818 83.4915 291.444C84.9711 289.908 99.0873 273.907 100.068 271.336C100.856 269.271 87.3647 265.369 86.9443 263.751Z" fill="#C3FE0C"/>
<path fill-rule="evenodd" clip-rule="evenodd" d="M134.246 241.978C137.928 244.819 133.571 248.445 127.292 266.187C126.906 267.276 126.22 266.532 126.162 266.551C126.8 264.582 133.112 245.091 134.246 241.978Z" fill="#C3FE0C"/>
<path fill-rule="evenodd" clip-rule="evenodd" d="M120.975 282.095C121.094 282.435 121.852 282.171 121.971 282.511C122.494 284.009 120.272 289.966 120.04 290.588C117.907 296.302 116.162 296.152 115.598 296.103C118.352 289.112 117.983 289.045 120.975 282.095Z" fill="#C3FE0C"/>
<path fill-rule="evenodd" clip-rule="evenodd" d="M113.148 296.153C110.032 296.144 109.828 295.712 107.474 289.674C107.28 289.177 106.826 288.738 106.84 288.205C106.849 287.86 107.522 287.779 107.531 287.434C110.009 292.08 109.971 291.973 113.148 296.153Z" fill="#C3FE0C"/>
<path fill-rule="evenodd" clip-rule="evenodd" d="M91.776 276.021C91.3955 276.422 91.5655 276.439 91.1977 276.826C90.8097 277.234 90.8351 277.2 86.3055 281.879C86.0637 281.268 85.6463 281.788 85.4204 281.219C85.3997 281.166 85.3838 281.127 85.8062 280.619C89.79 275.828 91.1762 275.963 91.776 276.021Z" fill="#C3FE0C"/>
</g>
<g filter="url(#filter3_dd_367_3625)">
<path fill-rule="evenodd" clip-rule="evenodd" d="M159.882 20.0623C148.748 34.8432 141.086 31.3233 132.79 45.5765C128.199 55.0737 131.896 60.7671 128.323 58.6321C124.013 56.0565 124.171 55.7878 119.317 54.6436C111.382 58.4194 111.237 59.3315 110.972 68.171C110.925 69.7375 110.68 69.5665 109.541 71.9981C108.316 73.4933 102.486 80.6123 86.0697 77.7152C82.7055 77.1214 89.5717 68.6714 71.8012 63.6177C63.993 61.3973 64.6929 72.8067 62.986 69.1437C62.5653 68.2412 62.9596 68.1272 59.4276 57.2155C49.1149 40.8897 39.4309 44.7347 23.4402 31.0246C22.5572 30.2672 22.6511 30.3274 17.4281 25.4785C12.5507 22.2938 11.7664 25.3624 11.3832 27.0603C10.4595 31.1576 15.4652 39.1237 16.0532 40.0589C22.4527 46.9815 31.7382 53.855 23.3093 49.6057C23.1441 49.5223 23.1478 49.5493 21.1311 48.8425C6.75493 45.1068 17.6471 57.3839 18.1559 57.9576C24.4393 62.6883 24.3818 62.6508 31.0732 66.6773C32.7648 67.6955 27.6684 67.1291 27.0551 67.7282C24.1031 70.61 25.6316 72.0983 26.0074 73.3915C28.6021 78.0218 32.3083 79.0816 35.9965 80.1763C37.3931 80.7178 38.7891 81.2593 40.1856 81.8003C41.6445 82.0056 62.6767 84.9666 56.1483 90.9877C53.2534 93.6578 56.2993 95.2792 51.4942 101.596C50.9253 102.344 51.2061 102.38 46.1413 112.051C44.8181 114.578 45.4562 114.852 43.5709 116.942C43.2068 117.346 43.8164 117.63 40.8781 123.186C38.3067 127.057 38.1489 126.779 35.0744 130.101C26.4888 138.233 26.0607 137.652 22.8543 139.615C15.1754 146.108 14.6709 146.359 11.3526 154.816C10.3556 156.759 11.3447 163.445 15.9893 166.707C23.7891 172.184 25.1086 171.568 32.7442 171.928C34.5393 168.561 35.2497 169.301 39.0978 169.594C40.8649 169.729 40.4268 170.356 41.3183 171.935C42.3918 172.343 48.4515 172.655 52.1619 168.82C55.2791 165.713 56.8181 168.179 57.0583 168.43C60.613 169.129 66.6821 165.048 67.4163 164.554C68.6656 158.591 71.3231 162.131 73.3356 161.361C77.9443 159.595 79.5023 160.684 80.3595 155.803C80.8978 152.735 84.6183 154.155 84.9819 154.293C86.6587 154.933 91.6554 151.419 91.7631 151.359C92.606 150.658 93.4494 149.958 94.2928 149.258C95.8292 146.295 95.2935 145.893 98.1811 144.112C101.825 141.863 101.824 142.015 105.56 139.867C106.24 139.502 116.262 132.45 125.078 129.252C126.678 128.672 133.785 124.37 134.528 123.921C136.577 121.852 135.737 121.403 137.472 118.983C137.891 118.398 138.184 119.309 146.118 116.488C151.963 113.603 165.572 98.1146 156.088 91.0653C148.477 85.7989 148.224 86.0966 147.588 84.662C145.391 78.8077 142.118 76.9657 147.85 74.5447C153.521 72.149 153.75 73.0732 159.331 70.6073C159.817 70.2004 162.683 67.9747 166.702 63.3675C167.136 62.4492 170.005 57.9977 165.326 56.3003C164.69 56.3114 160.273 56.6708 162.029 55.4717C170.121 49.9435 174.841 39.6298 175.576 38.0227C176.326 27.1944 168.094 35.3953 167.329 34.4078C167.047 34.0426 174.181 26.0311 174.605 13.8057C174.636 12.9064 172.649 -1.46079 163.375 14.4687C161.689 17.3657 161.646 17.2375 159.882 20.0623Z" fill="black"/>
<path fill-rule="evenodd" clip-rule="evenodd" d="M119.373 110.461C82.9545 133.402 89.2859 143.407 50.1344 158.8C27.7901 167.585 24.8281 162.488 24.4687 165.691C24.4402 165.941 38.5931 168.009 47.0247 165.814C79.2467 157.426 91.2831 140.516 122.017 125.269C132.531 120.052 132.564 119.862 133.978 116.659C135.883 112.348 146.206 116.964 154.297 97.2501C155.532 94.2416 154.13 94.2669 148.144 89.5384C144.955 87.0198 146.597 92.3115 134.49 101.216C133.348 102.056 133.268 101.914 119.373 110.461Z" fill="#FA2E5E"/>
<path fill-rule="evenodd" clip-rule="evenodd" d="M28.1106 71.2759C36.5854 81.0054 48.0101 75.1167 56.9647 83.0574C59.6671 85.4536 59.7536 82.8278 62.1709 75.5062C62.5963 74.2179 61.1174 74.5546 55.8395 59.7747C51.35 47.2052 38.2163 49.2003 19.3349 31.4837C14.6802 27.1162 14.1002 27.122 14.0284 27.6408C12.3854 39.4935 40.7212 56.5472 39.9037 58.5866C38.4438 62.2274 24.9976 52.0435 18.0075 50.6675C16.8896 50.4475 15.5405 51.6661 19.3006 55.2546C27.6952 63.2656 41.3356 66.4492 41.3482 68.1556C41.3884 73.6341 37.0931 69.445 28.5618 69.8393C27.5558 69.8857 27.8994 70.232 28.1106 71.2759Z" fill="#C3FE0C"/>
<path fill-rule="evenodd" clip-rule="evenodd" d="M162.649 58.9193C161.909 59.0771 145.25 62.635 153.766 55.6559C154.5 55.0548 168.21 46.0717 172.28 36.5106C174.567 31.1387 149.569 54.7824 153.733 42.8743C154.957 39.3713 170.717 30.9149 170.767 10.6438C170.791 0.475228 171.055 17.2228 152.212 31.4121C140.075 40.5509 137.615 39.5882 134.769 54.4774C133.95 58.7662 131.721 61.1899 134.006 63.0398C138.409 66.6056 142.057 73.7705 142.965 73.1957C150.915 68.16 152.218 70.5277 159.404 64.4227C163.672 60.7956 165.806 58.7895 162.649 58.9193Z" fill="#C3FE0C"/>
<path fill-rule="evenodd" clip-rule="evenodd" d="M82.7757 92.9849C82.961 93.1437 84.3021 94.2943 85.0737 94.9926C95.7268 102.283 119.466 110.508 118.592 103.018C117.813 96.3427 114.314 87.0725 128.052 68.5098C130.916 64.6395 128.314 64.5999 125.86 62.6671C116.278 55.118 115.195 58.8242 115.008 59.7046C114.141 63.7797 122.254 85.5894 89.2465 84.0234C88.4664 83.9864 88.4532 84.1991 83.1283 91.6327C83.0628 91.7234 83.1283 91.6327 82.7757 92.9849Z" fill="#EEEFF3"/>
<path fill-rule="evenodd" clip-rule="evenodd" d="M20.5411 146.307L20.6778 146.73C38.3637 150.048 53.1996 128.854 69.4273 143.931C70.6966 145.11 90.3069 130.78 87.6146 128.931C77.1368 121.733 72.8801 120.737 64.9563 119.268C64.7161 119.223 64.7235 119.345 60.1934 124.088C50.9549 133.763 42.7967 131.918 41.2043 131.558C37.0543 130.619 37.4913 132.265 34.2738 135.11C26.131 142.309 24.6347 140.621 20.5411 146.307Z" fill="#EEEFF3"/>
<path fill-rule="evenodd" clip-rule="evenodd" d="M65.4978 145.754C62.0814 144.384 58.2454 142.188 53.8842 142.572C48.1613 143.076 41.5801 147.584 32.8002 150.08C20.967 153.444 17.6382 145.52 15.2594 152.062C14.5696 153.96 19.9858 162.075 20.3447 162.417C22.7911 164.746 50.0988 158.101 63.9556 148.453C65.8435 147.139 67.6987 146.534 65.4978 145.754Z" fill="#EEEFF3"/>
<path fill-rule="evenodd" clip-rule="evenodd" d="M85.5479 123.595C88.9016 126.101 89.3734 128.452 92.1106 125.365C106.072 109.616 111.393 111.057 108.824 109.816C106.808 108.841 97.853 107.673 84.1292 98.0369C80.5666 95.5352 79.0286 93.6615 77.6758 97.7424C76.5068 101.269 102.269 120.916 77.1364 116.103C68.7286 114.493 68.2805 113.407 66.6924 115.251C65.3618 116.795 74.2135 117.121 79.6398 120.081C80.1222 120.345 80.0773 120.342 85.5479 123.595Z" fill="#C3FE0C"/>
<path fill-rule="evenodd" clip-rule="evenodd" d="M143.25 86.0669C142.638 84.5823 138.573 74.7214 132.928 68.8523C132.283 68.1809 126.093 77.8987 123.233 85.6421C122.767 86.903 118.679 105.809 124.992 101.733C132.248 97.0483 142.873 92.1498 143.25 86.0669Z" fill="#EEEFF3"/>
<path fill-rule="evenodd" clip-rule="evenodd" d="M72.3176 86.0871C71.0403 88.1418 69.9477 88.2036 71.3575 90.2879C76.1541 97.3799 59.9481 94.1419 61.4977 96.0541C63.1001 98.0317 72.9435 103.999 59.1353 105.459C56.795 105.707 54.7155 104.867 56.2414 106.526C59.7533 110.344 62.918 110.914 59.0102 114.425C57.3767 115.893 50.9096 113.84 53.254 117.848C53.5011 118.27 54.2558 122.305 53.7085 122.916C51.3054 125.598 45.7868 121.706 45.0959 122.698C42.962 125.764 38.3891 130.6 44.9328 129.578C49.3594 128.886 60.0341 120.967 59.6203 117.261C59.5016 116.196 61.1378 117.068 67.2671 106.272C78.231 86.9612 90.6158 84.3106 80.2815 81.8674C75.6105 80.7632 72.6965 85.4744 72.3176 86.0871Z" fill="#EEEFF3"/>
<path fill-rule="evenodd" clip-rule="evenodd" d="M67.291 75.5919C65.8031 80.8582 61.2836 89.3901 66.1167 86.7548C66.6355 86.4714 66.6772 84.3639 70.8035 80.8725C74.7688 77.5173 81.3262 78.7286 80.9937 77.1183C79.4784 69.7803 73.31 68.189 70.2171 66.709C69.0892 66.1691 68.572 70.9546 67.291 75.5919Z" fill="#FA2E5E"/>
<path fill-rule="evenodd" clip-rule="evenodd" d="M77.1273 112.349C82.3863 112.879 82.6708 112.326 82.4623 111.952C81.9646 111.059 76.0295 100.407 74.4836 101.965C74.3121 102.138 68.8573 110.906 68.8494 110.953C68.7412 111.616 69.0911 111.721 77.1273 112.349Z" fill="#EEEFF3"/>
<path fill-rule="evenodd" clip-rule="evenodd" d="M91.7636 151.359C91.656 151.42 86.6593 154.933 84.9825 154.293C84.6188 154.155 80.8984 152.735 80.36 155.803C79.5029 160.684 77.9448 159.595 73.3361 161.361C71.3236 162.131 68.6661 158.591 67.4168 164.554C71.873 167.187 92.2049 152.986 92.4149 152.27C92.52 151.911 91.6586 151.717 91.7636 151.359Z" fill="#FA2E5E"/>
<path fill-rule="evenodd" clip-rule="evenodd" d="M105.56 139.866C101.825 142.015 101.825 141.863 98.1813 144.112C95.2938 145.893 95.8295 146.295 94.2931 149.258C94.662 149.335 94.6847 150.018 95.0536 150.095C95.5524 150.199 106.062 140.945 106.137 140.698C106.236 140.375 105.461 140.189 105.56 139.866Z" fill="#FA2E5E"/>
<path fill-rule="evenodd" clip-rule="evenodd" d="M146.119 116.488C138.184 119.309 137.891 118.398 137.472 118.983C135.737 121.403 136.578 121.852 134.528 123.921C135.595 124.441 135.51 124.484 135.595 124.441C143.461 120.421 145.942 118.269 146.119 116.488Z" fill="#FA2E5E"/>
<path fill-rule="evenodd" clip-rule="evenodd" d="M41.3188 171.935C40.4274 170.356 40.8655 169.729 39.0984 169.594C35.2502 169.301 34.5398 168.561 32.7448 171.928C37.0147 173.029 37.0453 173.087 41.3188 171.935Z" fill="#FA2E5E"/>
<path fill-rule="evenodd" clip-rule="evenodd" d="M57.0586 168.43C56.8184 168.179 55.2794 165.713 52.1622 168.82C52.8325 168.868 52.2192 169.624 52.8299 169.668C53.088 169.687 53.8169 169.739 56.0141 169.096C56.4105 168.979 56.6622 168.546 57.0586 168.43Z" fill="#FA2E5E"/>
<path fill-rule="evenodd" clip-rule="evenodd" d="M64.834 91.7379C64.663 91.513 62.9941 89.32 62.3417 89.2366C62.2298 89.2224 59.0794 92.3939 64.834 91.7379Z" fill="#FA2E5E"/>
<path fill-rule="evenodd" clip-rule="evenodd" d="M49.9503 117.389C48.405 115.658 47.57 118.546 49.6627 119.366C51.1205 119.937 50.4064 118.84 49.9503 117.389Z" fill="#FA2E5E"/>
<path fill-rule="evenodd" clip-rule="evenodd" d="M54.5665 109.702C53.3901 109.025 52.9979 109.009 52.6965 110.372C52.3931 111.745 56.3394 111.918 54.5665 109.702Z" fill="#FA2E5E"/>
<path fill-rule="evenodd" clip-rule="evenodd" d="M58.6334 100.975C58.9612 100.803 60.7219 101.013 59.044 99.4399C58.4809 98.9121 56.2462 100.039 58.6334 100.975Z" fill="#FA2E5E"/>
<path fill-rule="evenodd" clip-rule="evenodd" d="M119.737 99.8542C119.804 99.7386 123.184 93.9735 119.803 98.1785C119.719 98.283 119.798 98.3025 119.737 99.8542Z" fill="#2E2E29"/>
</g>
<defs>
<filter id="filter0_dd_367_3625" x="212.121" y="25.856" width="133.648" height="93.9595" filterUnits="userSpaceOnUse" color-interpolation-filters="sRGB">
<feFlood flood-opacity="0" result="BackgroundImageFix"/>
<feColorMatrix in="SourceAlpha" type="matrix" values="0 0 0 0 0 0 0 0 0 0 0 0 0 0 0 0 0 0 127 0" result="hardAlpha"/>
<feOffset dy="1"/>
<feGaussianBlur stdDeviation="1.5"/>
<feColorMatrix type="matrix" values="0 0 0 0 0 0 0 0 0 0 0 0 0 0 0 0 0 0 0.3 0"/>
<feBlend mode="normal" in2="BackgroundImageFix" result="effect1_dropShadow_367_3625"/>
<feColorMatrix in="SourceAlpha" type="matrix" values="0 0 0 0 0 0 0 0 0 0 0 0 0 0 0 0 0 0 127 0" result="hardAlpha"/>
<feMorphology radius="3" operator="dilate" in="SourceAlpha" result="effect2_dropShadow_367_3625"/>
<feOffset dy="4"/>
<feGaussianBlur stdDeviation="4"/>
<feColorMatrix type="matrix" values="0 0 0 0 0 0 0 0 0 0 0 0 0 0 0 0 0 0 0.15 0"/>
<feBlend mode="normal" in2="effect1_dropShadow_367_3625" result="effect2_dropShadow_367_3625"/>
<feBlend mode="normal" in="SourceGraphic" in2="effect2_dropShadow_367_3625" result="shape"/>
</filter>
<filter id="filter1_dd_367_3625" x="182.499" y="130.624" width="174.947" height="189.762" filterUnits="userSpaceOnUse" color-interpolation-filters="sRGB">
<feFlood flood-opacity="0" result="BackgroundImageFix"/>
<feColorMatrix in="SourceAlpha" type="matrix" values="0 0 0 0 0 0 0 0 0 0 0 0 0 0 0 0 0 0 127 0" result="hardAlpha"/>
<feOffset dy="1"/>
<feGaussianBlur stdDeviation="1.5"/>
<feColorMatrix type="matrix" values="0 0 0 0 0 0 0 0 0 0 0 0 0 0 0 0 0 0 0.3 0"/>
<feBlend mode="normal" in2="BackgroundImageFix" result="effect1_dropShadow_367_3625"/>
<feColorMatrix in="SourceAlpha" type="matrix" values="0 0 0 0 0 0 0 0 0 0 0 0 0 0 0 0 0 0 127 0" result="hardAlpha"/>
<feMorphology radius="3" operator="dilate" in="SourceAlpha" result="effect2_dropShadow_367_3625"/>
<feOffset dy="4"/>
<feGaussianBlur stdDeviation="4"/>
<feColorMatrix type="matrix" values="0 0 0 0 0 0 0 0 0 0 0 0 0 0 0 0 0 0 0.15 0"/>
<feBlend mode="normal" in2="effect1_dropShadow_367_3625" result="effect2_dropShadow_367_3625"/>
<feBlend mode="normal" in="SourceGraphic" in2="effect2_dropShadow_367_3625" result="shape"/>
</filter>
<filter id="filter2_dd_367_3625" x="67.6694" y="232.498" width="78.9268" height="83.3367" filterUnits="userSpaceOnUse" color-interpolation-filters="sRGB">
<feFlood flood-opacity="0" result="BackgroundImageFix"/>
<feColorMatrix in="SourceAlpha" type="matrix" values="0 0 0 0 0 0 0 0 0 0 0 0 0 0 0 0 0 0 127 0" result="hardAlpha"/>
<feOffset dy="1"/>
<feGaussianBlur stdDeviation="1.5"/>
<feColorMatrix type="matrix" values="0 0 0 0 0 0 0 0 0 0 0 0 0 0 0 0 0 0 0.3 0"/>
<feBlend mode="normal" in2="BackgroundImageFix" result="effect1_dropShadow_367_3625"/>
<feColorMatrix in="SourceAlpha" type="matrix" values="0 0 0 0 0 0 0 0 0 0 0 0 0 0 0 0 0 0 127 0" result="hardAlpha"/>
<feMorphology radius="3" operator="dilate" in="SourceAlpha" result="effect2_dropShadow_367_3625"/>
<feOffset dy="4"/>
<feGaussianBlur stdDeviation="4"/>
<feColorMatrix type="matrix" values="0 0 0 0 0 0 0 0 0 0 0 0 0 0 0 0 0 0 0.15 0"/>
<feBlend mode="normal" in2="effect1_dropShadow_367_3625" result="effect2_dropShadow_367_3625"/>
<feBlend mode="normal" in="SourceGraphic" in2="effect2_dropShadow_367_3625" result="shape"/>
</filter>
<filter id="filter3_dd_367_3625" x="0" y="0" width="186.625" height="187.776" filterUnits="userSpaceOnUse" color-interpolation-filters="sRGB">
<feFlood flood-opacity="0" result="BackgroundImageFix"/>
<feColorMatrix in="SourceAlpha" type="matrix" values="0 0 0 0 0 0 0 0 0 0 0 0 0 0 0 0 0 0 127 0" result="hardAlpha"/>
<feOffset dy="1"/>
<feGaussianBlur stdDeviation="1.5"/>
<feColorMatrix type="matrix" values="0 0 0 0 0 0 0 0 0 0 0 0 0 0 0 0 0 0 0.3 0"/>
<feBlend mode="normal" in2="BackgroundImageFix" result="effect1_dropShadow_367_3625"/>
<feColorMatrix in="SourceAlpha" type="matrix" values="0 0 0 0 0 0 0 0 0 0 0 0 0 0 0 0 0 0 127 0" result="hardAlpha"/>
<feMorphology radius="3" operator="dilate" in="SourceAlpha" result="effect2_dropShadow_367_3625"/>
<feOffset dy="4"/>
<feGaussianBlur stdDeviation="4"/>
<feColorMatrix type="matrix" values="0 0 0 0 0 0 0 0 0 0 0 0 0 0 0 0 0 0 0.15 0"/>
<feBlend mode="normal" in2="effect1_dropShadow_367_3625" result="effect2_dropShadow_367_3625"/>
<feBlend mode="normal" in="SourceGraphic" in2="effect2_dropShadow_367_3625" result="shape"/>
</filter>
</defs>
</svg>
