<svg preserveAspectRatio="none" width="100%" height="100%" overflow="visible" style="display: block;" viewBox="0 0 186.624 187.776" fill="none" xmlns="http://www.w3.org/2000/svg">
<g id="Tennis" filter="url(#filter0_dd_347_2566)">
<path id="Vector" fill-rule="evenodd" clip-rule="evenodd" d="M26.7423 20.0623C37.8762 34.8432 45.5382 31.3233 53.8347 45.5765C58.4255 55.0737 54.7288 60.7671 58.3014 58.6321C62.6119 56.0565 62.4531 55.7878 67.3078 54.6436C75.2422 58.4194 75.3878 59.3315 75.6528 68.171C75.6997 69.7375 75.9446 69.5665 77.0836 71.9981C78.3081 73.4933 84.1382 80.6123 100.555 77.7152C103.919 77.1214 97.0529 68.6714 114.823 63.6177C122.632 61.3973 121.932 72.8067 123.639 69.1437C124.059 68.2412 123.665 68.1272 127.197 57.2155C137.51 40.8897 147.194 44.7347 163.184 31.0246C164.067 30.2672 163.973 30.3274 169.196 25.4785C174.074 22.2938 174.858 25.3624 175.241 27.0603C176.165 31.1576 171.159 39.1237 170.571 40.0589C164.172 46.9815 154.886 53.855 163.315 49.6057C163.48 49.5223 163.477 49.5493 165.493 48.8425C179.87 45.1068 168.977 57.3839 168.469 57.9576C162.185 62.6883 162.243 62.6508 155.551 66.6773C153.86 67.6955 158.956 67.1291 159.569 67.7282C162.521 70.61 160.993 72.0983 160.617 73.3915C158.022 78.0218 154.316 79.0816 150.628 80.1763C149.231 80.7178 147.835 81.2593 146.439 81.8003C144.98 82.0056 123.948 84.9666 130.476 90.9877C133.371 93.6578 130.325 95.2792 135.13 101.596C135.699 102.344 135.418 102.38 140.483 112.051C141.806 114.578 141.168 114.852 143.054 116.942C143.418 117.346 142.808 117.63 145.746 123.186C148.318 127.057 148.476 126.779 151.55 130.101C160.136 138.233 160.564 137.652 163.77 139.615C171.449 146.108 171.954 146.359 175.272 154.816C176.269 156.759 175.28 163.445 170.635 166.707C162.835 172.184 161.516 171.568 153.88 171.928C152.085 168.561 151.375 169.301 147.527 169.594C145.76 169.729 146.198 170.356 145.306 171.935C144.233 172.343 138.173 172.655 134.463 168.82C131.345 165.713 129.806 168.179 129.566 168.43C126.012 169.129 119.942 165.048 119.208 164.554C117.959 158.591 115.301 162.131 113.289 161.361C108.68 159.595 107.122 160.684 106.265 155.803C105.727 152.735 102.006 154.155 101.643 154.293C99.9658 154.933 94.9691 151.419 94.8614 151.359C94.0185 150.658 93.1751 149.958 92.3317 149.258C90.7953 146.295 91.331 145.893 88.4434 144.112C84.7995 141.863 84.8 142.015 81.0648 139.867C80.3845 139.502 70.3627 132.45 61.5469 129.252C59.946 128.672 52.8393 124.37 52.0966 123.921C50.0472 121.852 50.8875 121.403 49.1526 118.983C48.7335 118.398 48.4406 119.309 40.5062 116.488C34.6614 113.603 21.0526 98.1146 30.5361 91.0653C38.1475 85.7989 38.4008 86.0966 39.0368 84.662C41.2335 78.8077 44.5069 76.9657 38.7745 74.5447C33.1033 72.149 32.8743 73.0732 27.2938 70.6073C26.8072 70.2004 23.9413 67.9747 19.9221 63.3675C19.4882 62.4492 16.6191 57.9977 21.2986 56.3003C21.9341 56.3114 26.3512 56.6708 24.5957 55.4717C16.5036 49.9435 11.7835 39.6298 11.0482 38.0227C10.2982 27.1944 18.5308 35.3953 19.2951 34.4078C19.5774 34.0426 12.4432 26.0311 12.0199 13.8057C11.9888 12.9064 13.9759 -1.46079 23.2493 14.4687C24.9356 17.3657 24.9784 17.2375 26.7423 20.0623Z" fill="var(--fill-0, black)"/>
<path id="Vector_2" fill-rule="evenodd" clip-rule="evenodd" d="M67.2517 110.461C103.67 133.402 97.3388 143.407 136.49 158.8C158.835 167.585 161.797 162.488 162.156 165.691C162.185 165.941 148.032 168.009 139.6 165.814C107.378 157.426 95.3416 140.516 64.6074 125.269C54.0937 120.052 54.061 119.862 52.6465 116.659C50.7422 112.348 40.419 116.964 32.3278 97.25C31.0928 94.2416 32.4946 94.2669 38.4809 89.5384C41.6699 87.0197 40.0279 92.3114 52.1345 101.216C53.2767 102.056 53.3564 101.914 67.2517 110.461Z" fill="var(--fill-0, #FA2E5E)"/>
<path id="Vector_3" fill-rule="evenodd" clip-rule="evenodd" d="M158.514 71.276C150.039 81.0054 138.615 75.1168 129.66 83.0575C126.958 85.4537 126.871 82.8279 124.454 75.5063C124.028 74.218 125.507 74.5547 130.785 59.7748C135.275 47.2053 148.408 49.2004 167.29 31.4838C171.944 27.1162 172.525 27.122 172.596 27.6409C174.239 39.4936 145.903 56.5473 146.721 58.5867C148.181 62.2274 161.627 52.0436 168.617 50.6676C169.735 50.4475 171.084 51.6662 167.324 55.2547C158.93 63.2656 145.289 66.4493 145.276 68.1557C145.236 73.6342 149.532 69.4451 158.063 69.8394C159.069 69.8858 158.725 70.232 158.514 71.276Z" fill="var(--fill-0, #C3FE0C)"/>
<path id="Vector_4" fill-rule="evenodd" clip-rule="evenodd" d="M23.9753 58.9192C24.7153 59.077 41.3747 62.6349 32.8581 55.6559C32.1245 55.0547 18.4149 46.0716 14.344 36.5105C12.0571 31.1386 37.0552 54.7824 32.8919 42.8742C31.6674 39.3712 15.9074 30.9148 15.8578 10.6437C15.8335 0.475154 15.5696 17.2227 34.4125 31.412C46.5492 40.5508 49.0098 39.5881 51.8551 54.4773C52.6748 58.7662 54.9037 61.1898 52.6189 63.0398C48.2154 66.6056 44.5678 73.7704 43.66 73.1956C35.7098 68.1599 34.4067 70.5276 27.2207 64.4226C22.9524 60.7956 20.8185 58.7894 23.9753 58.9192Z" fill="var(--fill-0, #C3FE0C)"/>
<path id="Vector_5" fill-rule="evenodd" clip-rule="evenodd" d="M103.849 92.9849C103.664 93.1438 102.322 94.2944 101.551 94.9927C90.8977 102.283 67.1589 110.508 68.0324 103.018C68.8114 96.3428 72.3102 87.0726 58.5727 68.5099C55.7089 64.6396 58.3109 64.6 60.7641 62.6672C70.3463 55.1181 71.4293 58.8243 71.6167 59.7047C72.4839 63.7798 64.3706 85.5894 97.378 84.0235C98.158 83.9865 98.1712 84.1992 103.496 91.6327C103.562 91.7235 103.496 91.6327 103.849 92.9849Z" fill="var(--fill-0, #EEEFF3)"/>
<path id="Vector_6" fill-rule="evenodd" clip-rule="evenodd" d="M166.083 146.307L165.947 146.73C148.261 150.048 133.425 128.854 117.197 143.931C115.928 145.11 96.3175 130.78 99.0098 128.931C109.488 121.733 113.744 120.737 121.668 119.268C121.908 119.223 121.901 119.345 126.431 124.088C135.67 133.763 143.828 131.917 145.42 131.557C149.57 130.619 149.133 132.265 152.351 135.11C160.494 142.309 161.99 140.621 166.083 146.307Z" fill="var(--fill-0, #EEEFF3)"/>
<path id="Vector_7" fill-rule="evenodd" clip-rule="evenodd" d="M121.127 145.754C124.543 144.383 128.379 142.188 132.741 142.572C138.464 143.076 145.045 147.583 153.825 150.079C165.658 153.444 168.987 145.52 171.365 152.062C172.055 153.96 166.639 162.075 166.28 162.417C163.834 164.746 136.526 158.1 122.669 148.453C120.781 147.139 118.926 146.534 121.127 145.754Z" fill="var(--fill-0, #EEEFF3)"/>
<path id="Vector_8" fill-rule="evenodd" clip-rule="evenodd" d="M101.077 123.595C97.7233 126.101 97.2515 128.452 94.5143 125.365C80.5525 109.616 75.2323 111.057 77.8006 109.816C79.8173 108.842 88.7719 107.674 102.496 98.037C106.058 95.5352 107.596 93.6616 108.949 97.7425C110.118 101.269 84.3563 120.916 109.488 116.103C117.896 114.493 118.344 113.408 119.933 115.251C121.263 116.795 112.411 117.121 106.985 120.082C106.503 120.345 106.548 120.342 101.077 123.595Z" fill="var(--fill-0, #C3FE0C)"/>
<path id="Vector_9" fill-rule="evenodd" clip-rule="evenodd" d="M43.3746 86.067C43.9863 84.5823 48.052 74.7215 53.6962 68.8524C54.3417 68.181 60.5317 77.8988 63.3919 85.6421C63.8574 86.9031 67.9452 105.809 61.6327 101.733C54.3771 97.0484 43.752 92.1499 43.3746 86.067Z" fill="var(--fill-0, #EEEFF3)"/>
<path id="Vector_10" fill-rule="evenodd" clip-rule="evenodd" d="M114.307 86.0871C115.585 88.1418 116.677 88.2036 115.267 90.2878C110.471 97.3799 126.677 94.1418 125.127 96.054C123.525 98.0317 113.681 103.999 127.49 105.459C129.83 105.707 131.909 104.867 130.384 106.526C126.872 110.344 123.707 110.914 127.615 114.425C129.248 115.893 135.715 113.84 133.371 117.848C133.124 118.27 132.369 122.305 132.916 122.916C135.319 125.598 140.838 121.706 141.529 122.698C143.663 125.764 148.236 130.6 141.692 129.578C137.265 128.886 126.591 120.967 127.005 117.261C127.123 116.196 125.487 117.068 119.358 106.272C108.394 86.9611 96.0091 84.3105 106.343 81.8674C111.014 80.7632 113.928 85.4743 114.307 86.0871Z" fill="var(--fill-0, #EEEFF3)"/>
<path id="Vector_11" fill-rule="evenodd" clip-rule="evenodd" d="M119.334 75.5919C120.822 80.8583 125.341 89.3901 120.508 86.7548C119.989 86.4714 119.948 84.3639 115.821 80.8725C111.856 77.5173 105.299 78.7286 105.631 77.1183C107.146 69.7803 113.315 68.189 116.408 66.7091C117.536 66.1691 118.053 70.9547 119.334 75.5919Z" fill="var(--fill-0, #FA2E5E)"/>
<path id="Vector_12" fill-rule="evenodd" clip-rule="evenodd" d="M109.498 112.349C104.239 112.879 103.954 112.326 104.163 111.952C104.66 111.059 110.595 100.407 112.141 101.965C112.313 102.138 117.768 110.906 117.776 110.953C117.884 111.616 117.534 111.721 109.498 112.349Z" fill="var(--fill-0, #EEEFF3)"/>
<path id="Vector_13" fill-rule="evenodd" clip-rule="evenodd" d="M94.8612 151.359C94.9689 151.42 99.9655 154.933 101.642 154.293C102.006 154.155 105.726 152.735 106.265 155.803C107.122 160.684 108.68 159.595 113.289 161.361C115.301 162.131 117.959 158.591 119.208 164.554C114.752 167.187 94.42 152.986 94.2099 152.27C94.1049 151.911 94.9662 151.717 94.8612 151.359Z" fill="var(--fill-0, #FA2E5E)"/>
<path id="Vector_14" fill-rule="evenodd" clip-rule="evenodd" d="M81.0646 139.866C84.7998 142.015 84.7993 141.863 88.4432 144.112C91.3308 145.893 90.795 146.295 92.3315 149.258C91.9625 149.335 91.9398 150.018 91.5709 150.095C91.0721 150.199 80.5621 140.945 80.4872 140.698C80.389 140.375 81.1633 140.189 81.0646 139.866Z" fill="var(--fill-0, #FA2E5E)"/>
<path id="Vector_15" fill-rule="evenodd" clip-rule="evenodd" d="M40.506 116.488C48.4404 119.309 48.7333 118.398 49.1524 118.983C50.8872 121.403 50.047 121.852 52.0964 123.921C51.0297 124.441 51.1147 124.484 51.0297 124.441C43.1634 120.421 40.6823 118.268 40.506 116.488Z" fill="var(--fill-0, #FA2E5E)"/>
<path id="Vector_16" fill-rule="evenodd" clip-rule="evenodd" d="M145.306 171.935C146.197 170.356 145.759 169.729 147.526 169.594C151.375 169.301 152.085 168.561 153.88 171.928C149.61 173.029 149.579 173.087 145.306 171.935Z" fill="var(--fill-0, #FA2E5E)"/>
<path id="Vector_17" fill-rule="evenodd" clip-rule="evenodd" d="M129.566 168.43C129.806 168.179 131.345 165.713 134.462 168.82C133.792 168.868 134.405 169.624 133.795 169.668C133.537 169.687 132.808 169.739 130.611 169.095C130.214 168.979 129.962 168.546 129.566 168.43Z" fill="var(--fill-0, #FA2E5E)"/>
<path id="Vector_18" fill-rule="evenodd" clip-rule="evenodd" d="M121.791 91.7378C121.962 91.5129 123.631 89.3199 124.283 89.2365C124.395 89.2223 127.545 92.3938 121.791 91.7378Z" fill="var(--fill-0, #FA2E5E)"/>
<path id="Vector_19" fill-rule="evenodd" clip-rule="evenodd" d="M136.674 117.389C138.22 115.658 139.055 118.546 136.962 119.366C135.504 119.937 136.218 118.84 136.674 117.389Z" fill="var(--fill-0, #FA2E5E)"/>
<path id="Vector_20" fill-rule="evenodd" clip-rule="evenodd" d="M132.058 109.702C133.235 109.025 133.627 109.009 133.928 110.372C134.232 111.745 130.285 111.918 132.058 109.702Z" fill="var(--fill-0, #FA2E5E)"/>
<path id="Vector_21" fill-rule="evenodd" clip-rule="evenodd" d="M127.991 100.975C127.663 100.803 125.903 101.013 127.581 99.4399C128.144 98.9121 130.378 100.039 127.991 100.975Z" fill="var(--fill-0, #FA2E5E)"/>
<path id="Vector_22" fill-rule="evenodd" clip-rule="evenodd" d="M66.8876 99.8542C66.82 99.7386 63.44 93.9734 66.8216 98.1784C66.9055 98.2829 66.8264 98.3024 66.8876 99.8542Z" fill="var(--fill-0, #2E2E29)"/>
</g>
<defs>
<filter id="filter0_dd_347_2566" x="-2.60625e-07" y="-1.49252e-07" width="186.624" height="187.776" filterUnits="userSpaceOnUse" color-interpolation-filters="sRGB">
<feFlood flood-opacity="0" result="BackgroundImageFix"/>
<feColorMatrix in="SourceAlpha" type="matrix" values="0 0 0 0 0 0 0 0 0 0 0 0 0 0 0 0 0 0 127 0" result="hardAlpha"/>
<feOffset dy="1"/>
<feGaussianBlur stdDeviation="1.5"/>
<feColorMatrix type="matrix" values="0 0 0 0 0 0 0 0 0 0 0 0 0 0 0 0 0 0 0.3 0"/>
<feBlend mode="normal" in2="BackgroundImageFix" result="effect1_dropShadow_347_2566"/>
<feColorMatrix in="SourceAlpha" type="matrix" values="0 0 0 0 0 0 0 0 0 0 0 0 0 0 0 0 0 0 127 0" result="hardAlpha"/>
<feMorphology radius="3" operator="dilate" in="SourceAlpha" result="effect2_dropShadow_347_2566"/>
<feOffset dy="4"/>
<feGaussianBlur stdDeviation="4"/>
<feColorMatrix type="matrix" values="0 0 0 0 0 0 0 0 0 0 0 0 0 0 0 0 0 0 0.15 0"/>
<feBlend mode="normal" in2="effect1_dropShadow_347_2566" result="effect2_dropShadow_347_2566"/>
<feBlend mode="normal" in="SourceGraphic" in2="effect2_dropShadow_347_2566" result="shape"/>
</filter>
</defs>
</svg>
